M48
; DRILL file {KiCad 6.0.0-d3dd2cf0fa~116~ubuntu21.10.1} date Sat 15 Jan 2022 20:43:22 CST
; FORMAT={-:-/ absolute / inch / decimal}
; #@! TF.CreationDate,2022-01-15T20:43:22-06:00
; #@! TF.GenerationSoftware,Kicad,Pcbnew,6.0.0-d3dd2cf0fa~116~ubuntu21.10.1
; #@! TF.FileFunction,Plated,1,4,PTH
FMAT,2
INCH
; #@! TA.AperFunction,Plated,PTH,ViaDrill
T1C0.0157
; #@! TA.AperFunction,Plated,PTH,ComponentDrill
T2C0.0276
; #@! TA.AperFunction,Plated,PTH,ComponentDrill
T3C0.0295
; #@! TA.AperFunction,Plated,PTH,ComponentDrill
T4C0.0315
; #@! TA.AperFunction,Plated,PTH,ComponentDrill
T5C0.0335
; #@! TA.AperFunction,Plated,PTH,ComponentDrill
T6C0.0354
; #@! TA.AperFunction,Plated,PTH,ComponentDrill
T7C0.0394
; #@! TA.AperFunction,Plated,PTH,ComponentDrill
T8C0.0400
; #@! TA.AperFunction,Plated,PTH,ComponentDrill
T9C0.0472
%
G90
G05
T1
X2.0558Y-6.7025
X2.0695Y-10.6584
X2.0778Y-12.53
X2.1164Y-10.5838
X2.1272Y-6.8023
X2.1538Y-11.0661
X2.1687Y-12.0793
X2.1892Y-10.8012
X2.1892Y-11.4935
X2.1892Y-11.7168
X2.2602Y-10.735
X2.2723Y-7.9811
X2.2864Y-12.8758
X2.2933Y-11.2548
X2.2981Y-11.5365
X2.304Y-8.0351
X2.3361Y-11.4286
X2.3441Y-10.9892
X2.3565Y-10.3321
X2.3992Y-10.6318
X2.3992Y-10.693
X2.4433Y-10.9799
X2.4741Y-8.7726
X2.526Y-8.9064
X2.5273Y-9.1803
X2.569Y-11.1839
X2.598Y-9.1323
X2.6001Y-7.9851
X2.6003Y-10.6849
X2.6057Y-7.1389
X2.6192Y-12.358
X2.6261Y-7.664
X2.7479Y-7.9851
X2.7561Y-10.44
X2.8021Y-12.0773
X2.8722Y-7.1835
X2.9229Y-10.359
X2.9402Y-7.9195
X2.9896Y-12.6926
X2.9936Y-11.8737
X3.0089Y-13.491
X3.0097Y-9.794
X3.0299Y-9.4926
X3.037Y-9.2116
X3.0389Y-8.0284
X3.0728Y-11.7449
X3.0838Y-6.7386
X3.0887Y-8.1459
X3.12Y-6.5793
X3.1322Y-10.6332
X3.1347Y-7.6689
X3.1348Y-9.2084
X3.1392Y-10.7937
X3.1426Y-11.7977
X3.1488Y-9.1454
X3.1499Y-10.3052
X3.1522Y-10.4773
X3.1572Y-10.863
X3.1748Y-7.1101
X3.1754Y-11.5571
X3.1811Y-14.326
X3.2191Y-12.2573
X3.224Y-10.2494
X3.2386Y-14.2373
X3.2463Y-11.1482
X3.2486Y-13.1783
X3.2519Y-7.4521
X3.2562Y-6.5214
X3.2744Y-12.6878
X3.2828Y-11.2927
X3.2833Y-11.7099
X3.3006Y-10.9023
X3.3035Y-9.0463
X3.3039Y-11.3825
X3.323Y-9.702
X3.3247Y-11.0162
X3.3535Y-7.6044
X3.3632Y-12.3955
X3.369Y-12.5768
X3.369Y-12.6707
X3.3692Y-12.5154
X3.3753Y-11.4596
X3.3842Y-9.033
X3.4026Y-14.0533
X3.4043Y-11.3731
X3.4075Y-10.5098
X3.4222Y-10.1991
X3.4231Y-11.2732
X3.4285Y-7.9585
X3.4382Y-7.2686
X3.4391Y-12.5637
X3.4414Y-12.3059
X3.4675Y-11.5413
X3.4707Y-9.4327
X3.4762Y-9.2084
X3.4834Y-9.7611
X3.4936Y-11.3276
X3.4956Y-10.908
X3.5103Y-10.4352
X3.5217Y-9.702
X3.5222Y-7.6727
X3.5241Y-7.3606
X3.5264Y-8.0744
X3.5331Y-11.7043
X3.5451Y-13.3926
X3.5474Y-9.8748
X3.5607Y-10.2486
X3.5775Y-11.6596
X3.5915Y-8.4202
X3.5952Y-6.4903
X3.5965Y-8.1459
X3.6053Y-9.4846
X3.606Y-12.0348
X3.6191Y-12.7551
X3.6203Y-13.4337
X3.6432Y-6.863
X3.655Y-7.872
X3.655Y-8.0791
X3.6652Y-6.2996
X3.6684Y-6.7733
X3.7001Y-7.1467
X3.7023Y-13.9484
X3.7143Y-13.5116
X3.731Y-12.9486
X3.7362Y-14.0583
X3.7859Y-7.1753
X3.7871Y-9.535
X3.791Y-8.9823
X3.7959Y-13.1094
X3.8Y-12.3334
X3.8398Y-8.6864
X3.8507Y-12.5956
X3.8509Y-10.9928
X3.8865Y-12.6767
X3.8996Y-7.1349
X3.9079Y-12.6029
X3.9344Y-13.992
X3.9404Y-9.2587
X3.9573Y-10.4435
X3.9583Y-9.5219
X3.9872Y-8.1456
X3.9993Y-12.0433
X4.0681Y-11.7842
X4.0689Y-6.5328
X4.0763Y-12.0196
X4.0978Y-10.1148
X4.1Y-8.7634
X4.1513Y-9.8787
X4.1557Y-11.2669
X4.1587Y-11.5305
X4.1732Y-12.0899
X4.1901Y-7.6426
X4.1911Y-11.2139
X4.1917Y-7.8082
X4.2132Y-8.7973
X4.2224Y-8.1771
X4.2412Y-9.5313
X4.2437Y-8.4537
X4.2532Y-13.4312
X4.2919Y-8.4863
X4.3061Y-9.3016
X4.3157Y-10.3902
X4.3176Y-9.8831
X4.3551Y-13.6749
X4.3942Y-12.6458
X4.4063Y-9.5607
X4.4183Y-10.9928
X4.4496Y-8.7436
X4.4557Y-9.277
X4.4684Y-9.0156
X4.4895Y-6.5355
X4.492Y-7.4001
X4.5167Y-11.7423
X4.5307Y-11.4796
X4.5727Y-12.7197
X4.5749Y-7.2141
X4.5801Y-7.2897
X4.6092Y-11.21
X4.6298Y-12.0956
X4.646Y-12.3775
X4.6606Y-11.7884
X4.6632Y-9.815
X4.6762Y-8.2777
X4.6769Y-12.5362
X4.6825Y-12.2585
X4.6975Y-12.8998
X4.7035Y-13.5052
X4.7045Y-11.8767
X4.7054Y-6.8714
X4.7054Y-7.5328
X4.7569Y-13.9597
X4.7655Y-6.4499
X4.767Y-11.1318
X4.774Y-10.0211
X4.7889Y-8.5992
X4.7967Y-9.652
X4.8051Y-6.2412
X4.8199Y-12.9327
X4.8204Y-8.3355
X4.821Y-9.2289
X4.8246Y-13.2092
X4.83Y-9.0086
X4.8323Y-8.0461
X4.8323Y-7.0194
X4.8373Y-8.2549
X4.8423Y-6.0753
X4.8591Y-11.5285
X4.8654Y-7.9474
X4.8807Y-8.3849
X4.921Y-13.6663
X4.9347Y-8.7363
X4.9347Y-10.9708
X4.9462Y-7.4278
X4.9468Y-7.8918
X4.9628Y-8.6389
X4.9651Y-12.0391
X4.9668Y-13.9984
X4.9786Y-13.8814
X4.9856Y-12.1298
X4.9856Y-12.5453
X4.9902Y-6.4981
X4.9908Y-9.0884
X4.9988Y-9.9395
X5.0266Y-11.2169
X5.0279Y-10.603
X5.0362Y-11.8282
X5.0362Y-12.7177
X5.0572Y-14.0417
X5.0607Y-11.5022
X5.0608Y-9.5168
X5.0865Y-10.4771
X5.0931Y-13.3223
X5.0969Y-12.087
X5.0985Y-9.8753
X5.1001Y-12.3817
X5.1037Y-6.251
X5.1057Y-6.3609
X5.1062Y-9.3787
X5.1132Y-9.0465
X5.1347Y-8.2241
X5.1416Y-13.8061
X5.1485Y-6.9356
X5.1694Y-12.7559
X5.1771Y-7.9613
X5.2108Y-11.8129
X5.2129Y-6.8714
X5.2135Y-6.4649
X5.2227Y-12.9957
X5.2231Y-6.1868
X5.2583Y-14.0457
X5.2664Y-9.0131
X5.2675Y-13.4215
X5.3205Y-9.0003
X5.337Y-9.7818
X5.3404Y-11.4722
X5.3607Y-8.7404
X5.3829Y-10.4097
X5.3975Y-10.0888
X5.4Y-13.4585
X5.4014Y-7.9135
X5.4014Y-9.845
X5.4252Y-11.5264
X5.4258Y-7.1367
X5.428Y-8.1979
X5.4411Y-8.7034
X5.4413Y-6.8226
X5.4443Y-10.3692
X5.4443Y-10.9107
X5.4479Y-7.6057
X5.4488Y-10.126
X5.4492Y-10.6255
X5.4543Y-12.5965
X5.4605Y-6.5155
X5.49Y-13.1954
X5.5009Y-7.0777
X5.5009Y-12.2913
X5.5443Y-7.4092
X5.5658Y-13.6245
X5.5696Y-12.5219
X5.5719Y-7.6735
X5.5883Y-12.6437
X5.5945Y-6.585
X5.6166Y-13.4332
X5.6455Y-7.073
X5.6529Y-6.777
X5.6898Y-7.4116
X5.7217Y-7.0318
X5.7451Y-13.0915
X5.7531Y-7.6252
X5.76Y-11.44
X5.7726Y-6.2607
X5.7998Y-6.5191
X5.8012Y-12.895
X5.807Y-14.1095
X5.8552Y-7.0931
X5.8575Y-12.5328
X5.9113Y-11.9861
X5.9461Y-14.2458
X5.9898Y-13.6601
X6.0218Y-11.8261
X6.0427Y-10.983
X6.0484Y-12.2933
X6.0527Y-12.911
X6.0537Y-13.7291
X6.0796Y-12.0497
X6.0882Y-12.6757
X6.092Y-11.984
X6.0922Y-12.7984
X6.0958Y-12.6026
X6.1174Y-12.1042
X6.1241Y-7.1652
X6.1242Y-13.7805
X6.1523Y-13.1145
X6.1712Y-12.1405
X6.1749Y-8.2766
X6.1752Y-9.0754
X6.1755Y-13.2791
X6.1765Y-9.5987
X6.1767Y-11.5184
X6.18Y-7.94
X6.1842Y-11.5769
X6.1883Y-10.6847
X6.1888Y-9.891
X6.19Y-11.36
X6.1918Y-8.1227
X6.192Y-10.3437
X6.1925Y-9.3643
X6.1958Y-6.7538
X6.1983Y-8.5114
X6.1985Y-11.792
X6.1989Y-10.4367
X6.2015Y-8.8088
X6.2025Y-11.2252
X6.206Y-10.1428
X6.2061Y-12.7984
X6.2064Y-11.3116
X6.2125Y-11.4211
X6.2224Y-7.6597
X6.2228Y-14.3759
X6.2232Y-7.4703
X6.2298Y-14.1034
X6.2489Y-13.8036
X6.2613Y-6.5071
X6.2998Y-11.6696
X6.3049Y-6.3471
X6.3128Y-11.7371
X6.3274Y-12.484
X6.3383Y-6.6911
X6.3581Y-11.942
X6.36Y-11.855
X6.3716Y-7.6567
X6.3816Y-7.0881
X6.3898Y-12.2407
X6.4023Y-6.5055
X6.4062Y-6.9914
X6.4087Y-7.1543
X6.4148Y-14.3739
X6.4213Y-12.6026
X6.4453Y-12.2832
X6.47Y-12.61
X6.48Y-14.17
X6.4859Y-7.1422
X6.4861Y-12.4121
X6.49Y-14.3
X6.5046Y-6.5212
X6.5072Y-6.6835
X6.5206Y-13.0193
X6.5334Y-12.7582
X6.5429Y-11.3108
X6.551Y-11.2268
X6.552Y-6.2796
X6.5579Y-11.6716
X6.56Y-11.98
X6.5623Y-6.4955
X6.5932Y-8.5154
X6.5981Y-8.8127
X6.6Y-14.27
X6.606Y-11.855
X6.6207Y-10.3417
X6.6247Y-9.0734
X6.6285Y-9.5919
X6.6285Y-8.2826
X6.6379Y-9.3643
X6.6397Y-13.4324
X6.6417Y-10.991
X6.6447Y-10.4393
X6.649Y-13.0809
X6.6494Y-12.6515
X6.6496Y-9.897
X6.6514Y-11.5184
X6.6537Y-10.6873
X6.6619Y-10.1359
X6.67Y-11.63
X6.678Y-11.991
X6.6844Y-11.7409
X6.6846Y-13.8344
X6.6907Y-12.5589
X6.6916Y-12.9129
X6.7485Y-8.1247
X6.781Y-12.118
X6.7996Y-14.0667
X6.835Y-12.611
X6.8428Y-14.1188
X6.8623Y-12.3013
X6.8817Y-14.2283
X6.89Y-11.45
X6.8998Y-11.1872
X6.9285Y-10.9064
X6.96Y-7.94
X6.9867Y-7.5913
X6.9891Y-12.285
X6.991Y-11.2352
X6.996Y-12.597
X7.006Y-13.7291
X7.01Y-11.43
X7.0173Y-7.6537
X7.043Y-12.05
X7.0447Y-6.8172
X7.0889Y-11.5597
X7.1096Y-13.7626
X7.1148Y-13.2294
X7.1867Y-13.9885
X7.25Y-11.53
X7.251Y-13.6234
X7.26Y-11.97
X7.2652Y-14.2736
X7.2863Y-12.9049
X7.3399Y-13.9836
X7.3469Y-11.5492
X7.3564Y-13.6851
X7.3826Y-6.7603
X7.4163Y-6.5315
X7.4456Y-6.695
X7.4542Y-14.1341
X7.47Y-11.53
X7.4912Y-11.4342
X7.517Y-6.9378
X7.5633Y-14.1199
X7.58Y-11.49
X7.6055Y-11.1871
X7.6198Y-12.7942
X7.6426Y-10.9961
X7.6567Y-11.5513
X7.6646Y-10.3178
X7.6646Y-12.9578
X7.6673Y-8.814
X7.6756Y-9.6467
X7.6773Y-8.2846
X7.6791Y-8.5174
X7.6804Y-9.8976
X7.6823Y-9.345
X7.6828Y-8.1407
X7.6852Y-9.0674
X7.6875Y-10.6781
X7.6925Y-14.2177
X7.6928Y-11.8861
X7.6988Y-10.4383
X7.7068Y-10.1794
X7.7088Y-11.052
X7.7164Y-12.7442
X7.7438Y-13.3798
X7.7449Y-12.3512
X7.8098Y-13.9235
X7.8125Y-12.6524
X7.83Y-14.33
X7.832Y-12.21
X7.8747Y-11.4377
X7.8919Y-7.6751
X7.8922Y-12.5341
X7.91Y-7.24
X7.91Y-7.39
X7.913Y-13.077
X7.916Y-12.432
X7.9251Y-11.5827
X7.9254Y-13.817
X7.9612Y-7.6543
X7.971Y-13.6895
X7.9816Y-12.2613
X7.9878Y-11.5289
X8.0059Y-11.1871
X8.0179Y-13.4214
X8.0179Y-13.5097
X8.0197Y-7.5487
X8.0334Y-13.2105
X8.0374Y-11.8264
X8.045Y-12.128
X8.0462Y-7.1386
X8.0482Y-6.773
X8.0699Y-13.7076
X8.0711Y-7.3652
X8.1056Y-13.6326
X8.1154Y-12.0608
X8.1177Y-7.7051
X8.1215Y-9.6152
X8.1233Y-11.4925
X8.1258Y-11.052
X8.1323Y-11.6263
X8.1431Y-9.9002
X8.1515Y-12.829
X8.1555Y-8.1527
X8.1576Y-8.8166
X8.1644Y-9.343
X8.1677Y-8.2846
X8.1725Y-7.4467
X8.1802Y-7.5002
X8.1959Y-9.0714
X8.2022Y-11.6335
X8.2075Y-8.5254
X8.2137Y-11.9151
X8.2137Y-13.7547
X8.2143Y-10.9901
X8.2269Y-13.6541
X8.2292Y-10.3278
X8.2397Y-13.3755
X8.263Y-10.4383
X8.2853Y-11.5254
X8.3013Y-6.68
X8.3137Y-10.6795
X8.3455Y-6.8004
X8.3489Y-10.1499
X8.37Y-7.69
X8.4478Y-7.625
X8.45Y-11.51
X8.4557Y-13.1742
X8.4559Y-6.6344
X8.4885Y-12.6334
X8.5303Y-7.6082
X8.5452Y-12.2894
X8.5467Y-7.3503
X8.554Y-13.6947
X8.5763Y-12.566
X8.58Y-11.44
X8.6096Y-12.8476
X8.611Y-7.6258
X8.6414Y-12.2843
X8.6476Y-12.0043
X8.698Y-12.087
X8.706Y-7.6269
X8.7077Y-12.3708
X8.7557Y-13.9584
X8.7702Y-11.5352
X8.7904Y-13.4466
X8.805Y-7.6165
X8.82Y-12.0426
X8.8254Y-13.735
X8.898Y-12.1175
X8.9Y-11.55
X8.908Y-7.6247
X8.9178Y-7.3363
X8.99Y-11.56
X9.087Y-12.2492
X9.09Y-12.102
X9.1099Y-11.7131
X9.114Y-8.284
X9.114Y-10.32
X9.13Y-11.2368
X9.1301Y-11.8244
X9.14Y-6.6988
X9.17Y-12.9
X9.1742Y-9.356
X9.1759Y-10.0927
X9.1762Y-10.9972
X9.1802Y-8.8137
X9.1805Y-9.9199
X9.1878Y-11.8994
X9.19Y-12.6
X9.1934Y-13.0915
X9.2126Y-12.6709
X9.2178Y-7.901
X9.224Y-8.18
X9.2449Y-12.7719
X9.2658Y-7.2028
X9.2913Y-12.4073
X9.2913Y-12.1124
X9.3016Y-12.716
X9.31Y-7.44
X9.3198Y-11.8783
X9.3328Y-13.531
X9.3446Y-12.5476
X9.346Y-11.2879
X9.3583Y-13.4482
X9.3929Y-12.1383
X9.3958Y-6.6711
X9.4288Y-12.0199
X9.4398Y-11.8656
X9.4448Y-7.1547
X9.449Y-13.162
X9.4551Y-11.5386
X9.4577Y-11.1912
X9.4616Y-9.863
X9.4682Y-12.4928
X9.4854Y-12.6785
X9.5082Y-12.5104
X9.5121Y-7.0266
X9.5407Y-13.0051
X9.577Y-12.4533
X9.5808Y-12.3769
X9.5823Y-12.2487
X9.583Y-13.9915
X9.6012Y-6.7744
X9.6088Y-13.3006
X9.6128Y-9.4321
X9.6347Y-12.8965
X9.6348Y-12.284
X9.6454Y-13.533
X9.653Y-13.3798
X9.6556Y-13.0695
X9.6673Y-7.901
X9.6803Y-7.1866
X9.6848Y-12.3767
X9.6849Y-9.4321
X9.6903Y-9.1527
X9.6975Y-9.3582
X9.7045Y-9.2302
X9.7292Y-9.8721
X9.736Y-8.092
X9.75Y-11.92
X9.7537Y-10.9972
X9.7549Y-11.5275
X9.7607Y-11.2879
X9.7633Y-10.0488
X9.7671Y-10.3098
X9.7714Y-9.9269
X9.7724Y-11.846
X9.7794Y-12.5476
X9.78Y-11.71
X9.8036Y-12.1062
X9.8919Y-12.2088
X9.8994Y-12.2897
X9.9008Y-12.5647
X9.923Y-13.751
X9.9307Y-6.5844
X9.9448Y-9.5001
X9.9472Y-6.8729
X9.9482Y-9.9644
X9.9498Y-8.0862
X9.9515Y-11.6353
X9.9522Y-10.2841
X9.9603Y-12.6201
X9.9952Y-13.1414
X10.05Y-8.064
X10.0501Y-9.9657
X10.0521Y-10.2921
X10.0574Y-13.1127
X10.058Y-9.4907
X10.0595Y-12.3776
X10.0607Y-12.8481
X10.0621Y-12.0984
X10.1006Y-14.0593
X10.1156Y-7.7458
X10.1546Y-11.8061
X10.1699Y-6.6129
X10.1773Y-7.9086
X10.1963Y-12.1092
X10.2125Y-9.1527
X10.227Y-9.2823
X10.2355Y-9.3399
X10.2414Y-7.7997
X10.2415Y-9.227
X10.2579Y-11.5119
X10.259Y-13.692
X10.2642Y-9.1031
X10.3054Y-12.565
X10.32Y-12.152
X10.3431Y-12.2949
X10.3478Y-9.9417
X10.3535Y-11.5045
X10.3538Y-10.2713
X10.3551Y-9.1055
X10.3913Y-6.7069
X10.4033Y-7.1073
X10.4537Y-9.9516
X10.4577Y-9.0938
X10.4597Y-10.2933
X10.4654Y-11.788
X10.4837Y-12.1774
X10.5123Y-12.2631
X10.5453Y-12.1599
X10.5497Y-9.9456
X10.55Y-12.53
X10.55Y-12.83
X10.5517Y-10.2993
X10.5557Y-11.8208
X10.5564Y-9.0964
X10.5692Y-6.4523
X10.604Y-14.151
X10.618Y-13.7787
X10.63Y-12.31
X10.63Y-12.87
X10.6389Y-13.6817
X10.6436Y-9.9536
X10.6496Y-10.2513
X10.651Y-7.7198
X10.6532Y-8.3382
X10.6557Y-9.1003
X10.6564Y-8.5439
X10.6603Y-6.9445
X10.6902Y-13.0897
X10.7415Y-9.9657
X10.7445Y-12.5972
X10.75Y-12.72
X10.7512Y-9.0962
X10.7537Y-12.5483
X10.7557Y-7.8153
X10.7581Y-8.5462
X10.7593Y-8.342
X10.7608Y-10.3243
X10.8011Y-12.7817
X10.8065Y-13.851
X10.8253Y-10.0203
X10.8269Y-10.0945
X10.8302Y-9.9591
X10.85Y-11.59
X10.8623Y-11.4965
X10.8652Y-10.0588
X10.8828Y-13.6183
X10.8982Y-11.7518
X10.9016Y-11.5442
X10.9052Y-12.6633
X10.9129Y-13.524
X10.9249Y-11.9117
X10.9515Y-6.223
X10.9538Y-9.121
X10.98Y-12.59
X10.99Y-11.02
X10.9916Y-12.9388
X10.994Y-7.6594
X10.9947Y-6.4463
X11.0034Y-10.2071
X11.0062Y-7.7913
X11.0115Y-7.3985
X11.0157Y-7.248
X11.0195Y-12.3605
X11.0265Y-9.488
X11.0293Y-12.99
X11.0313Y-12.7139
X11.0325Y-8.0125
X11.0443Y-14.3957
X11.0467Y-7.6703
X11.0576Y-10.3708
X11.0603Y-9.0158
X11.0606Y-8.9557
X11.061Y-8.7537
X11.073Y-14.0489
X11.0784Y-7.1665
X11.079Y-10.2194
X11.0824Y-10.8065
X11.0928Y-7.6178
X11.0961Y-12.8732
X11.1Y-12.98
X11.1144Y-8.3542
X11.1214Y-12.2265
X11.1222Y-14.2234
X11.1237Y-11.7471
X11.1355Y-6.581
X11.1415Y-11.68
X11.1435Y-13.6895
X11.1663Y-10.8662
X11.1716Y-13.201
X11.1769Y-13.9949
X11.1779Y-7.9692
X11.1789Y-11.8298
X11.1814Y-10.7353
X11.2018Y-7.6116
X11.2062Y-11.9677
X11.2074Y-14.1178
X11.2124Y-13.5879
X11.2177Y-11.7863
X11.2206Y-13.7501
X11.2422Y-8.2329
X11.27Y-12.59
X11.2885Y-8.7397
X11.3177Y-9.4879
X11.3227Y-9.2223
X11.3322Y-11.1175
X11.3324Y-6.5252
X11.3464Y-10.3885
X11.35Y-11.53
X11.3512Y-8.7989
X11.3623Y-10.1605
X11.3627Y-10.2373
X11.4Y-11.48
X11.4083Y-6.8568
X11.4103Y-9.046
X11.4443Y-7.8953
X11.455Y-8.4852
X11.4737Y-11.2521
X11.4789Y-14.0444
X11.4963Y-6.2234
X11.5008Y-6.85
X11.5106Y-7.9558
X11.5295Y-10.5616
X11.5582Y-6.8098
X11.5699Y-7.636
X11.5763Y-12.6179
X11.593Y-9.2311
X11.5934Y-9.1061
X11.6Y-14.0108
X11.6013Y-13.4445
X11.603Y-11.5229
X11.6047Y-12.2785
X11.6411Y-9.2831
X11.6426Y-11.2
X11.6454Y-10.5113
X11.6482Y-9.136
X11.6543Y-9.019
X11.6602Y-6.465
X11.6664Y-9.3967
X11.6686Y-6.8267
X11.6801Y-9.3364
X11.6813Y-11.1807
X11.6872Y-8.7882
X11.6973Y-7.0406
X11.7Y-12.0
X11.7017Y-7.425
X11.714Y-13.6895
X11.7235Y-9.05
X11.7235Y-9.4005
X11.7453Y-7.1437
X11.7523Y-6.8357
X11.7557Y-8.7146
X11.76Y-11.14
X11.7684Y-11.4952
X11.7985Y-7.1177
X11.8229Y-10.5186
X11.851Y-8.7238
X11.8598Y-7.036
X11.8701Y-9.3675
X11.8998Y-7.1489
X11.9112Y-8.2072
X11.9139Y-12.5297
X11.926Y-13.1378
X11.9351Y-9.4112
X11.96Y-7.87
X11.9794Y-6.7948
X11.9802Y-8.7835
X12.0713Y-6.9306
X12.08Y-12.54
X12.0809Y-12.8062
X12.0835Y-13.6618
X12.1Y-7.3502
X12.1023Y-7.2209
X12.105Y-8.8979
X12.107Y-12.206
X12.1148Y-6.975
X12.1152Y-6.7263
X12.1194Y-8.5092
X12.1215Y-11.6606
X12.1272Y-8.8209
X12.1436Y-7.7608
X12.146Y-7.9607
X12.1582Y-14.1433
X12.1732Y-10.2198
X12.1764Y-11.2152
X12.1787Y-9.0028
X12.18Y-9.85
X12.18Y-11.79
X12.1851Y-7.1317
X12.19Y-10.14
X12.19Y-11.91
X12.1952Y-8.6906
X12.203Y-12.5442
X12.2036Y-12.6622
X12.2108Y-13.4853
X12.23Y-10.8
X12.2378Y-7.4975
X12.2418Y-7.2818
X12.2429Y-8.0414
X12.2438Y-13.4157
X12.2471Y-6.9826
X12.25Y-12.85
X12.2692Y-12.9871
X12.2717Y-13.7527
X12.2861Y-12.3513
X12.2891Y-7.5907
X12.3Y-12.66
X12.3134Y-12.127
X12.32Y-11.7033
X12.3263Y-8.8176
X12.3329Y-8.7363
X12.3441Y-13.3588
X12.3455Y-7.0382
X12.3463Y-12.2167
X12.3505Y-12.3617
X12.3532Y-6.6722
X12.3533Y-12.0746
X12.3559Y-7.2209
X12.3644Y-9.6578
X12.37Y-7.1
X12.38Y-7.9087
X12.3955Y-10.1396
X12.3964Y-10.0623
X12.406Y-12.4411
X12.4253Y-13.4513
X12.4268Y-6.9868
X12.4285Y-12.3634
X12.431Y-10.7572
X12.431Y-11.3768
X12.46Y-9.73
X12.46Y-12.4557
X12.4705Y-11.8727
X12.4945Y-9.9342
X12.4987Y-8.8801
X12.5031Y-11.5813
X12.517Y-7.68
X12.5249Y-11.8198
X12.533Y-10.6159
X12.5368Y-10.5221
X12.5551Y-7.1858
X12.56Y-6.7
X12.56Y-6.9868
X12.5874Y-11.7537
X12.5907Y-12.1694
X12.6Y-6.66
X12.61Y-8.47
X12.612Y-7.095
X12.6121Y-12.7625
X12.618Y-12.22
X12.6251Y-11.126
X12.635Y-9.87
X12.6368Y-10.5221
X12.6381Y-10.3933
X12.6393Y-7.5992
X12.6578Y-12.0034
X12.6667Y-7.3826
X12.6697Y-8.8251
X12.6705Y-8.8855
X12.6709Y-11.712
X12.6807Y-8.2145
X12.6825Y-7.9635
X12.6849Y-6.363
X12.6862Y-6.2449
X12.6981Y-11.7569
X12.7004Y-8.6694
X12.7025Y-7.7564
X12.707Y-12.3
X12.7101Y-12.4526
X12.715Y-9.8606
X12.7163Y-6.9111
X12.7203Y-9.9322
X12.7244Y-10.0423
X12.7317Y-12.1048
X12.7338Y-11.496
X12.7353Y-13.3984
X12.739Y-8.3518
X12.7433Y-11.6615
X12.7438Y-7.7823
X12.7476Y-8.8731
X12.7477Y-12.6326
X12.7482Y-6.5798
X12.749Y-8.9806
X12.7536Y-12.8716
X12.7537Y-10.3933
X12.7638Y-7.7204
X12.7696Y-12.1308
X12.777Y-12.0068
X12.7926Y-8.4418
X12.7933Y-10.7439
X12.7952Y-7.3677
X12.8014Y-12.6882
X12.8077Y-11.3376
X12.809Y-8.347
X12.8242Y-11.1723
X12.827Y-11.836
X12.8304Y-7.6522
X12.834Y-11.911
X12.855Y-12.7694
X12.8607Y-7.1797
X12.866Y-6.6994
X12.88Y-14.03
X12.8994Y-13.4055
X12.8995Y-12.6935
X12.9025Y-8.3346
X12.95Y-12.93
X13.0733Y-12.6935
X13.0944Y-12.9491
X13.2219Y-6.3349
X13.2476Y-6.8435
X13.2764Y-6.9464
X13.294Y-11.9084
X13.3087Y-13.9202
X13.3134Y-13.3934
X13.3258Y-6.1371
X13.4005Y-6.7753
X13.4009Y-8.1503
X13.4262Y-6.2746
X13.5392Y-6.7892
X13.546Y-6.5584
X13.5886Y-12.5683
X13.6045Y-13.4602
X13.6636Y-14.0349
X13.7305Y-6.5558
X13.7754Y-13.5506
X13.832Y-6.9635
X13.8357Y-14.0928
X13.8485Y-6.565
X13.8694Y-6.8191
X13.9642Y-6.9658
X14.1437Y-12.7635
X14.2203Y-12.7651
X14.2892Y-13.1955
X14.3646Y-12.6326
X14.5899Y-13.4402
X14.6798Y-12.5622
X14.6903Y-12.9285
X14.8496Y-12.5782
X14.8734Y-12.6605
X14.9594Y-14.3072
X15.1764Y-8.9407
X15.1876Y-7.6483
X15.2062Y-10.3918
X15.2921Y-13.0271
X15.5803Y-10.3918
X15.5995Y-8.9372
X15.6027Y-7.647
T2
X2.56Y-13.56
X2.76Y-13.56
X2.92Y-13.32
X3.12Y-13.32
X4.32Y-7.52
X4.32Y-7.72
X4.52Y-7.52
X4.52Y-7.72
X4.64Y-13.56
X4.84Y-13.56
X6.26Y-13.4
X6.46Y-13.4
X10.08Y-14.16
X10.28Y-14.16
X10.62Y-13.42
X10.82Y-13.42
X12.34Y-12.9
X12.54Y-12.9
X12.5946Y-14.0524
X12.6Y-14.2
X12.6Y-14.34
X12.7946Y-14.0524
X12.8Y-14.2
X12.8Y-14.34
X12.82Y-13.08
X12.82Y-13.28
X12.96Y-13.08
X12.96Y-13.28
X13.1Y-13.08
X13.1Y-13.28
X13.24Y-13.08
X13.24Y-13.28
X13.42Y-13.72
X13.42Y-13.92
X13.82Y-14.36
X14.02Y-14.36
X14.2Y-13.1
X14.2Y-13.3
X14.88Y-13.1
X14.88Y-13.3
X14.9Y-13.54
X14.9Y-13.8
X15.0Y-13.1
X15.0Y-13.3
X15.1Y-13.54
X15.1Y-13.8
X15.12Y-13.1
X15.12Y-13.3
X15.22Y-13.1
X15.22Y-13.3
X15.8087Y-6.2849
X15.8087Y-6.3849
X15.8087Y-6.5849
X15.8087Y-6.6849
X15.8087Y-6.7849
T3
X2.92Y-13.06
X2.97Y-13.06
X3.02Y-13.06
X10.76Y-13.7
X10.81Y-13.7
X10.86Y-13.7
X13.38Y-14.18
X13.43Y-14.18
X13.48Y-14.18
X13.84Y-13.68
X13.84Y-13.73
X13.84Y-13.78
T4
X2.2216Y-13.6
X2.3Y-6.95
X2.3Y-7.25
X2.3Y-7.5
X2.3Y-7.8
X2.3Y-8.15
X2.3Y-8.25
X2.3Y-8.35
X2.3Y-8.45
X2.3Y-8.55
X2.3Y-8.65
X2.3Y-8.75
X2.3Y-8.85
X2.3Y-8.95
X2.3Y-9.05
X2.3Y-9.15
X2.3Y-9.25
X2.3Y-9.7
X2.3Y-10.0
X2.3Y-10.25
X2.3Y-10.55
X2.3Y-10.8
X2.3Y-11.1
X2.3Y-11.35
X2.3Y-11.65
X2.3Y-11.9
X2.3Y-12.2
X2.3Y-12.45
X2.3Y-12.75
X2.3Y-13.0
X2.3Y-13.3
X2.32Y-6.3
X2.32Y-6.6
X2.32Y-13.6
X2.4Y-6.95
X2.4Y-7.25
X2.4Y-7.5
X2.4Y-7.8
X2.4Y-9.7
X2.4Y-10.0
X2.4Y-10.25
X2.4Y-10.55
X2.4Y-10.8
X2.4Y-11.1
X2.4Y-11.35
X2.4Y-11.65
X2.4Y-11.9
X2.4Y-12.2
X2.4Y-12.45
X2.4Y-12.75
X2.4Y-13.0
X2.4Y-13.3
X2.5Y-6.95
X2.5Y-7.25
X2.5Y-7.5
X2.5Y-7.8
X2.5Y-9.7
X2.5Y-10.0
X2.5Y-10.25
X2.5Y-10.55
X2.5Y-10.8
X2.5Y-11.1
X2.5Y-11.35
X2.5Y-11.65
X2.5Y-11.9
X2.5Y-12.2
X2.5Y-12.45
X2.5Y-12.75
X2.5Y-13.0
X2.5Y-13.3
X2.6Y-6.95
X2.6Y-7.25
X2.6Y-7.5
X2.6Y-7.8
X2.6Y-9.7
X2.6Y-10.0
X2.6Y-10.25
X2.6Y-10.55
X2.6Y-10.8
X2.6Y-11.1
X2.6Y-11.35
X2.6Y-11.65
X2.6Y-11.9
X2.6Y-12.2
X2.6Y-12.45
X2.6Y-12.75
X2.6Y-13.0
X2.6Y-13.3
X2.7Y-6.95
X2.7Y-7.25
X2.7Y-7.5
X2.7Y-7.8
X2.7Y-9.7
X2.7Y-10.0
X2.7Y-10.25
X2.7Y-10.55
X2.7Y-10.8
X2.7Y-11.1
X2.7Y-11.35
X2.7Y-11.65
X2.7Y-11.9
X2.7Y-12.2
X2.7Y-12.45
X2.7Y-12.75
X2.8Y-6.95
X2.8Y-7.25
X2.8Y-7.5
X2.8Y-7.8
X2.8Y-9.7
X2.8Y-10.0
X2.8Y-10.25
X2.8Y-10.55
X2.8Y-10.8
X2.8Y-11.1
X2.8Y-11.35
X2.8Y-11.65
X2.8Y-11.9
X2.8Y-12.2
X2.8Y-12.45
X2.8Y-12.75
X2.9Y-6.95
X2.9Y-7.25
X2.9Y-7.5
X2.9Y-7.8
X2.9Y-8.15
X2.9Y-8.25
X2.9Y-8.35
X2.9Y-8.45
X2.9Y-8.55
X2.9Y-8.65
X2.9Y-8.75
X2.9Y-8.85
X2.9Y-8.95
X2.9Y-9.05
X2.9Y-9.15
X2.9Y-9.25
X2.9Y-9.7
X2.9Y-10.0
X2.9Y-10.25
X2.9Y-10.55
X2.9Y-10.8
X2.9Y-11.1
X2.9Y-11.35
X2.9Y-11.65
X2.9Y-11.9
X2.9Y-12.2
X2.9Y-12.45
X2.9Y-12.75
X2.92Y-6.3
X2.92Y-6.6
X3.0Y-7.5
X3.0Y-7.8
X3.0Y-9.7
X3.0Y-10.0
X3.0Y-10.25
X3.0Y-10.55
X3.0Y-10.8
X3.0Y-11.1
X3.0Y-11.35
X3.0Y-11.65
X3.38Y-6.8
X3.4784Y-6.8
X3.8Y-6.4
X3.8Y-6.7
X3.8Y-6.95
X3.8Y-7.25
X3.8Y-7.5
X3.8Y-7.8
X3.8Y-8.05
X3.8Y-8.35
X3.8Y-8.6
X3.8Y-8.9
X3.8Y-9.15
X3.8Y-9.45
X3.8Y-9.7
X3.8Y-10.0
X3.8Y-10.25
X3.8Y-10.55
X3.8Y-10.8
X3.8Y-11.1
X3.8Y-11.35
X3.8Y-11.65
X3.8Y-11.9
X3.8Y-12.2
X3.8Y-12.45
X3.8Y-12.75
X3.8Y-13.0
X3.8Y-13.3
X3.8Y-13.55
X3.8Y-13.85
X3.9Y-6.4
X3.9Y-6.7
X3.9Y-6.95
X3.9Y-7.25
X3.9Y-7.5
X3.9Y-7.8
X3.9Y-8.05
X3.9Y-8.35
X3.9Y-8.6
X3.9Y-8.9
X3.9Y-9.15
X3.9Y-9.45
X3.9Y-9.7
X3.9Y-10.0
X3.9Y-10.25
X3.9Y-10.55
X3.9Y-10.8
X3.9Y-11.1
X3.9Y-11.35
X3.9Y-11.65
X3.9Y-11.9
X3.9Y-12.2
X3.9Y-12.45
X3.9Y-12.75
X3.9Y-13.0
X3.9Y-13.3
X3.9Y-13.55
X3.9Y-13.85
X4.0Y-6.4
X4.0Y-6.7
X4.0Y-6.95
X4.0Y-7.25
X4.0Y-7.5
X4.0Y-7.8
X4.0Y-8.05
X4.0Y-8.35
X4.0Y-8.6
X4.0Y-8.9
X4.0Y-9.15
X4.0Y-9.45
X4.0Y-9.7
X4.0Y-10.0
X4.0Y-10.25
X4.0Y-10.55
X4.0Y-10.8
X4.0Y-11.1
X4.0Y-11.35
X4.0Y-11.65
X4.0Y-11.9
X4.0Y-12.2
X4.0Y-12.45
X4.0Y-12.75
X4.0Y-13.0
X4.0Y-13.3
X4.0Y-13.55
X4.0Y-13.85
X4.1Y-6.4
X4.1Y-6.7
X4.1Y-6.95
X4.1Y-7.25
X4.1Y-7.5
X4.1Y-7.8
X4.1Y-8.05
X4.1Y-8.35
X4.1Y-8.6
X4.1Y-8.9
X4.1Y-9.15
X4.1Y-9.45
X4.1Y-9.7
X4.1Y-10.0
X4.1Y-10.25
X4.1Y-10.55
X4.1Y-10.8
X4.1Y-11.1
X4.1Y-11.35
X4.1Y-11.65
X4.1Y-11.9
X4.1Y-12.2
X4.1Y-12.45
X4.1Y-12.75
X4.1Y-13.0
X4.1Y-13.3
X4.1Y-13.55
X4.1Y-13.85
X4.2Y-6.4
X4.2Y-6.7
X4.2Y-6.95
X4.2Y-7.25
X4.2Y-8.05
X4.2Y-8.35
X4.2Y-8.6
X4.2Y-8.9
X4.2Y-9.15
X4.2Y-9.45
X4.2Y-9.7
X4.2Y-10.0
X4.2Y-10.25
X4.2Y-10.55
X4.2Y-10.8
X4.2Y-11.1
X4.2Y-11.35
X4.2Y-11.65
X4.2Y-11.9
X4.2Y-12.2
X4.2Y-12.45
X4.2Y-12.75
X4.2Y-13.0
X4.2Y-13.3
X4.2Y-13.55
X4.2Y-13.85
X4.3Y-6.4
X4.3Y-6.7
X4.3Y-6.95
X4.3Y-7.25
X4.3Y-8.05
X4.3Y-8.35
X4.3Y-8.6
X4.3Y-8.9
X4.3Y-9.15
X4.3Y-9.45
X4.3Y-9.7
X4.3Y-10.0
X4.3Y-10.25
X4.3Y-10.55
X4.3Y-10.8
X4.3Y-11.1
X4.3Y-11.35
X4.3Y-11.65
X4.3Y-11.9
X4.3Y-12.2
X4.3Y-12.45
X4.3Y-12.75
X4.3Y-13.0
X4.3Y-13.3
X4.3Y-13.55
X4.3Y-13.85
X4.3252Y-7.862
X4.4Y-6.4
X4.4Y-6.7
X4.4Y-6.95
X4.4Y-7.25
X4.4Y-8.05
X4.4Y-8.35
X4.4Y-8.6
X4.4Y-8.9
X4.4Y-9.15
X4.4Y-9.45
X4.4Y-9.7
X4.4Y-10.0
X4.4Y-10.25
X4.4Y-10.55
X4.4Y-10.8
X4.4Y-11.1
X4.4Y-11.35
X4.4Y-11.65
X4.4Y-11.9
X4.4Y-12.2
X4.4Y-12.45
X4.4Y-12.75
X4.4Y-13.0
X4.4Y-13.3
X4.4Y-13.55
X4.4Y-13.85
X4.4236Y-7.862
X4.5Y-6.4
X4.5Y-6.7
X4.5Y-8.05
X4.5Y-8.35
X4.5Y-8.6
X4.5Y-8.9
X4.5Y-9.15
X4.5Y-9.45
X4.5Y-9.7
X4.5Y-10.0
X4.5Y-10.25
X4.5Y-10.55
X4.5Y-10.8
X4.5Y-11.1
X5.3Y-6.4
X5.3Y-6.7
X5.3Y-6.95
X5.3Y-7.25
X5.3Y-7.5
X5.3Y-7.8
X5.3Y-8.05
X5.3Y-8.35
X5.3Y-8.6
X5.3Y-8.9
X5.3Y-9.15
X5.3Y-9.45
X5.3Y-9.7
X5.3Y-10.0
X5.3Y-10.25
X5.3Y-10.55
X5.3Y-10.8
X5.3Y-11.1
X5.3Y-11.3443
X5.3Y-11.6443
X5.3Y-11.9
X5.3Y-12.2
X5.3Y-12.45
X5.3Y-12.75
X5.3Y-13.0
X5.3Y-13.3
X5.3Y-13.55
X5.3Y-13.85
X5.4Y-6.4
X5.4Y-6.7
X5.4Y-6.95
X5.4Y-7.25
X5.4Y-7.5
X5.4Y-7.8
X5.4Y-8.05
X5.4Y-8.35
X5.4Y-8.6
X5.4Y-8.9
X5.4Y-9.15
X5.4Y-9.45
X5.4Y-9.7
X5.4Y-10.0
X5.4Y-10.25
X5.4Y-10.55
X5.4Y-10.8
X5.4Y-11.1
X5.4Y-11.3443
X5.4Y-11.6443
X5.4Y-11.9
X5.4Y-12.2
X5.4Y-12.45
X5.4Y-12.75
X5.4Y-13.0
X5.4Y-13.3
X5.4Y-13.55
X5.4Y-13.85
X5.5Y-6.4
X5.5Y-6.7
X5.5Y-6.95
X5.5Y-7.25
X5.5Y-7.5
X5.5Y-7.8
X5.5Y-8.05
X5.5Y-8.35
X5.5Y-8.6
X5.5Y-8.9
X5.5Y-9.15
X5.5Y-9.45
X5.5Y-9.7
X5.5Y-10.0
X5.5Y-10.25
X5.5Y-10.55
X5.5Y-10.8
X5.5Y-11.1
X5.5Y-11.3443
X5.5Y-11.6443
X5.5Y-11.9
X5.5Y-12.2
X5.5Y-12.45
X5.5Y-12.75
X5.5Y-13.0
X5.5Y-13.3
X5.5Y-13.55
X5.5Y-13.85
X5.6Y-6.4
X5.6Y-6.7
X5.6Y-6.95
X5.6Y-7.25
X5.6Y-7.5
X5.6Y-7.8
X5.6Y-8.05
X5.6Y-8.35
X5.6Y-8.6
X5.6Y-8.9
X5.6Y-9.15
X5.6Y-9.45
X5.6Y-9.7
X5.6Y-10.0
X5.6Y-10.25
X5.6Y-10.55
X5.6Y-10.8
X5.6Y-11.1
X5.6Y-11.3443
X5.6Y-11.6443
X5.6Y-11.9
X5.6Y-12.2
X5.6Y-12.45
X5.6Y-12.75
X5.6Y-13.0
X5.6Y-13.3
X5.6Y-13.55
X5.6Y-13.85
X5.7Y-6.4
X5.7Y-6.7
X5.7Y-6.95
X5.7Y-7.25
X5.7Y-7.5
X5.7Y-7.8
X5.7Y-8.05
X5.7Y-8.35
X5.7Y-8.6
X5.7Y-8.9
X5.7Y-9.15
X5.7Y-9.45
X5.7Y-9.7
X5.7Y-10.0
X5.7Y-10.25
X5.7Y-10.55
X5.7Y-10.8
X5.7Y-11.1
X5.7Y-11.3443
X5.7Y-11.6443
X5.7Y-11.9
X5.7Y-12.2
X5.7Y-12.45
X5.7Y-12.75
X5.7Y-13.0
X5.7Y-13.3
X5.7Y-13.55
X5.7Y-13.85
X5.8Y-6.4
X5.8Y-6.7
X5.8Y-6.95
X5.8Y-7.25
X5.8Y-7.5
X5.8Y-7.8
X5.8Y-8.05
X5.8Y-8.35
X5.8Y-8.6
X5.8Y-8.9
X5.8Y-9.15
X5.8Y-9.45
X5.8Y-9.7
X5.8Y-10.0
X5.8Y-10.25
X5.8Y-10.55
X5.8Y-10.8
X5.8Y-11.1
X5.8Y-11.3443
X5.8Y-11.6443
X5.8Y-11.9
X5.8Y-12.2
X5.8Y-12.45
X5.8Y-12.75
X5.8Y-13.0
X5.8Y-13.3
X5.8Y-13.55
X5.8Y-13.85
X5.9Y-6.4
X5.9Y-6.7
X5.9Y-6.95
X5.9Y-7.25
X5.9Y-7.5
X5.9Y-7.8
X5.9Y-8.05
X5.9Y-8.35
X5.9Y-8.6
X5.9Y-8.9
X5.9Y-9.15
X5.9Y-9.45
X5.9Y-9.7
X5.9Y-10.0
X5.9Y-10.25
X5.9Y-10.55
X5.9Y-10.8
X5.9Y-11.1
X5.9Y-11.3443
X5.9Y-11.6443
X5.9Y-11.9
X5.9Y-12.2
X5.9Y-12.45
X5.9Y-12.75
X5.9Y-13.0
X5.9Y-13.3
X5.9Y-13.55
X5.9Y-13.85
X6.0Y-6.4
X6.0Y-6.7
X6.0Y-6.95
X6.0Y-7.25
X6.0Y-7.5
X6.0Y-7.8
X6.0Y-8.05
X6.0Y-8.35
X6.0Y-8.6
X6.0Y-8.9
X6.0Y-9.15
X6.0Y-9.45
X6.0Y-9.7
X6.0Y-10.0
X6.0Y-10.25
X6.0Y-10.55
X6.0Y-10.8
X6.0Y-11.1
X6.0Y-11.3443
X6.0Y-11.6443
X6.0Y-12.45
X6.0Y-12.75
X6.7961Y-6.9306
X6.7961Y-7.2306
X6.8Y-7.5
X6.8Y-7.8
X6.8Y-8.05
X6.8Y-8.35
X6.8Y-8.6
X6.8Y-8.9
X6.8Y-9.15
X6.8Y-9.45
X6.8Y-9.7
X6.8Y-10.0
X6.8Y-10.25
X6.8Y-10.55
X6.8Y-10.8
X6.8Y-11.1
X6.8Y-11.35
X6.8Y-11.65
X6.8Y-11.77
X6.8Y-11.9
X6.8Y-12.2
X6.8Y-12.45
X6.8Y-12.75
X6.8Y-13.0
X6.8Y-13.3
X6.8Y-13.55
X6.8Y-13.85
X6.8961Y-6.9306
X6.8961Y-7.2306
X6.9Y-7.5
X6.9Y-7.8
X6.9Y-8.05
X6.9Y-8.35
X6.9Y-8.6
X6.9Y-8.9
X6.9Y-9.15
X6.9Y-9.45
X6.9Y-9.7
X6.9Y-10.0
X6.9Y-10.25
X6.9Y-10.55
X6.9Y-10.8
X6.9Y-11.1
X6.9Y-11.35
X6.9Y-11.65
X6.9Y-11.77
X6.9Y-11.9
X6.9Y-12.2
X6.9Y-12.45
X6.9Y-12.75
X6.9Y-13.0
X6.9Y-13.3
X6.9Y-13.55
X6.9Y-13.85
X6.9961Y-6.9306
X6.9961Y-7.2306
X7.0Y-7.5
X7.0Y-7.8
X7.0Y-8.05
X7.0Y-8.35
X7.0Y-8.6
X7.0Y-8.9
X7.0Y-9.15
X7.0Y-9.45
X7.0Y-9.7
X7.0Y-10.0
X7.0Y-10.25
X7.0Y-10.55
X7.0Y-10.8
X7.0Y-11.1
X7.0Y-11.35
X7.0Y-11.65
X7.0Y-11.77
X7.0Y-11.9
X7.0Y-12.2
X7.0Y-12.45
X7.0Y-12.75
X7.0Y-13.0
X7.0Y-13.3
X7.0Y-13.55
X7.0Y-13.85
X7.0961Y-6.9306
X7.0961Y-7.2306
X7.1Y-7.5
X7.1Y-7.8
X7.1Y-8.05
X7.1Y-8.35
X7.1Y-8.6
X7.1Y-8.9
X7.1Y-9.15
X7.1Y-9.45
X7.1Y-9.7
X7.1Y-10.0
X7.1Y-10.25
X7.1Y-10.55
X7.1Y-10.8
X7.1Y-11.1
X7.1Y-11.35
X7.1Y-11.65
X7.1Y-11.77
X7.1Y-11.9
X7.1Y-12.2
X7.1Y-12.45
X7.1Y-12.75
X7.1Y-13.0
X7.1Y-13.3
X7.1Y-13.55
X7.1Y-13.85
X7.1961Y-6.9306
X7.1961Y-7.2306
X7.2Y-7.5
X7.2Y-7.8
X7.2Y-8.05
X7.2Y-8.35
X7.2Y-8.6
X7.2Y-8.9
X7.2Y-9.15
X7.2Y-9.45
X7.2Y-9.7
X7.2Y-10.0
X7.2Y-10.25
X7.2Y-10.55
X7.2Y-10.8
X7.2Y-11.1
X7.2Y-11.35
X7.2Y-11.65
X7.2Y-11.77
X7.2Y-11.9
X7.2Y-12.2
X7.2Y-12.45
X7.2Y-12.75
X7.2Y-13.0
X7.2Y-13.3
X7.2Y-13.55
X7.2Y-13.85
X7.2961Y-6.9306
X7.2961Y-7.2306
X7.3Y-7.5
X7.3Y-7.8
X7.3Y-8.05
X7.3Y-8.35
X7.3Y-8.6
X7.3Y-8.9
X7.3Y-9.15
X7.3Y-9.45
X7.3Y-9.7
X7.3Y-10.0
X7.3Y-10.25
X7.3Y-10.55
X7.3Y-10.8
X7.3Y-11.1
X7.3Y-11.35
X7.3Y-11.65
X7.3Y-11.77
X7.3Y-11.9
X7.3Y-12.2
X7.3Y-12.45
X7.3Y-12.75
X7.3Y-13.0
X7.3Y-13.3
X7.3Y-13.55
X7.3Y-13.85
X7.3961Y-6.9306
X7.3961Y-7.2306
X7.4Y-7.5
X7.4Y-7.8
X7.4Y-8.05
X7.4Y-8.35
X7.4Y-8.6
X7.4Y-8.9
X7.4Y-9.15
X7.4Y-9.45
X7.4Y-9.7
X7.4Y-10.0
X7.4Y-10.25
X7.4Y-10.55
X7.4Y-10.8
X7.4Y-11.1
X7.4Y-11.35
X7.4Y-11.65
X7.4Y-11.77
X7.4Y-11.9
X7.4Y-12.2
X7.4Y-12.45
X7.4Y-12.75
X7.4Y-13.0
X7.4Y-13.3
X7.4Y-13.55
X7.4Y-13.85
X7.5Y-7.5
X7.5Y-7.8
X7.5Y-8.05
X7.5Y-8.35
X7.5Y-8.6
X7.5Y-8.9
X7.5Y-9.15
X7.5Y-9.45
X7.5Y-9.7
X7.5Y-10.0
X7.5Y-10.25
X7.5Y-10.55
X7.5Y-10.8
X7.5Y-11.1
X7.5Y-11.35
X7.5Y-11.65
X7.5Y-11.77
X7.5Y-11.9
X7.5Y-12.2
X7.5Y-12.45
X7.5Y-12.75
X7.5Y-13.0
X7.5Y-13.3
X7.5Y-13.55
X7.5Y-13.85
X8.3Y-6.95
X8.3Y-7.25
X8.3Y-7.5
X8.3Y-7.8
X8.3Y-8.05
X8.3Y-8.35
X8.3Y-8.6
X8.3Y-8.9
X8.3Y-9.15
X8.3Y-9.45
X8.3Y-9.7
X8.3Y-10.0
X8.3Y-10.25
X8.3Y-10.55
X8.3Y-10.8
X8.3Y-11.1
X8.3Y-11.3555
X8.3Y-11.6555
X8.3Y-11.77
X8.3Y-11.9
X8.3Y-12.2
X8.3Y-12.45
X8.3Y-12.75
X8.3Y-13.0
X8.3Y-13.3
X8.3Y-13.55
X8.3Y-13.85
X8.4Y-6.95
X8.4Y-7.25
X8.4Y-7.5
X8.4Y-7.8
X8.4Y-8.05
X8.4Y-8.35
X8.4Y-8.6
X8.4Y-8.9
X8.4Y-9.15
X8.4Y-9.45
X8.4Y-9.7
X8.4Y-10.0
X8.4Y-10.25
X8.4Y-10.55
X8.4Y-10.8
X8.4Y-11.1
X8.4Y-11.3555
X8.4Y-11.6555
X8.4Y-11.77
X8.4Y-11.9
X8.4Y-12.2
X8.4Y-12.45
X8.4Y-12.75
X8.4Y-13.0
X8.4Y-13.3
X8.4Y-13.55
X8.4Y-13.85
X8.5Y-6.95
X8.5Y-7.25
X8.5Y-7.5
X8.5Y-7.8
X8.5Y-8.05
X8.5Y-8.35
X8.5Y-8.6
X8.5Y-8.9
X8.5Y-9.15
X8.5Y-9.45
X8.5Y-9.7
X8.5Y-10.0
X8.5Y-10.25
X8.5Y-10.55
X8.5Y-10.8
X8.5Y-11.1
X8.5Y-11.3555
X8.5Y-11.6555
X8.5Y-11.77
X8.5Y-11.9
X8.5Y-12.2
X8.5Y-12.45
X8.5Y-12.75
X8.5Y-13.0
X8.5Y-13.3
X8.5Y-13.55
X8.5Y-13.85
X8.6Y-6.95
X8.6Y-7.25
X8.6Y-7.5
X8.6Y-7.8
X8.6Y-8.05
X8.6Y-8.35
X8.6Y-8.6
X8.6Y-8.9
X8.6Y-9.15
X8.6Y-9.45
X8.6Y-9.7
X8.6Y-10.0
X8.6Y-10.25
X8.6Y-10.55
X8.6Y-10.8
X8.6Y-11.1
X8.6Y-11.3555
X8.6Y-11.6555
X8.6Y-11.77
X8.6Y-11.9
X8.6Y-12.2
X8.6Y-12.45
X8.6Y-12.75
X8.6Y-13.0
X8.6Y-13.3
X8.6Y-13.55
X8.6Y-13.85
X8.7Y-6.95
X8.7Y-7.25
X8.7Y-7.5
X8.7Y-7.8
X8.7Y-8.05
X8.7Y-8.35
X8.7Y-8.6
X8.7Y-8.9
X8.7Y-9.15
X8.7Y-9.45
X8.7Y-9.7
X8.7Y-10.0
X8.7Y-10.25
X8.7Y-10.55
X8.7Y-10.8
X8.7Y-11.1
X8.7Y-11.3555
X8.7Y-11.6555
X8.7Y-11.77
X8.7Y-11.9
X8.7Y-12.2
X8.7Y-12.45
X8.7Y-12.75
X8.7Y-13.0
X8.7Y-13.3
X8.7Y-13.55
X8.7Y-13.85
X8.8Y-6.95
X8.8Y-7.25
X8.8Y-7.5
X8.8Y-7.8
X8.8Y-8.05
X8.8Y-8.35
X8.8Y-8.6
X8.8Y-8.9
X8.8Y-9.15
X8.8Y-9.45
X8.8Y-9.7
X8.8Y-10.0
X8.8Y-10.25
X8.8Y-10.55
X8.8Y-10.8
X8.8Y-11.1
X8.8Y-11.3555
X8.8Y-11.6555
X8.8Y-11.77
X8.8Y-11.9
X8.8Y-12.2
X8.8Y-12.45
X8.8Y-12.75
X8.8Y-13.0
X8.8Y-13.3
X8.8Y-13.55
X8.8Y-13.85
X8.9Y-6.95
X8.9Y-7.25
X8.9Y-7.5
X8.9Y-7.8
X8.9Y-8.05
X8.9Y-8.35
X8.9Y-8.6
X8.9Y-8.9
X8.9Y-9.15
X8.9Y-9.45
X8.9Y-9.7
X8.9Y-10.0
X8.9Y-10.25
X8.9Y-10.55
X8.9Y-10.8
X8.9Y-11.1
X8.9Y-11.3555
X8.9Y-11.6555
X8.9Y-11.77
X8.9Y-11.9
X8.9Y-12.2
X8.9Y-12.45
X8.9Y-12.75
X8.9Y-13.0
X8.9Y-13.3
X8.9Y-13.55
X8.9Y-13.85
X9.0Y-7.5
X9.0Y-7.8
X9.0Y-8.05
X9.0Y-8.35
X9.0Y-8.6
X9.0Y-8.9
X9.0Y-9.15
X9.0Y-9.45
X9.0Y-9.7
X9.0Y-10.0
X9.0Y-10.25
X9.0Y-10.55
X9.0Y-10.8
X9.0Y-11.1
X9.0Y-11.3555
X9.0Y-11.6555
X9.0Y-11.77
X9.0Y-11.9
X9.0Y-12.2
X9.0Y-12.45
X9.0Y-12.75
X9.0Y-13.0
X9.0Y-13.3
X9.0Y-13.55
X9.0Y-13.85
X9.8Y-6.95
X9.8Y-7.25
X9.8Y-7.4
X9.8Y-8.0
X9.8Y-8.2
X9.8Y-8.8
X9.8Y-9.0
X9.8Y-9.6
X9.8Y-9.8
X9.8Y-10.4
X9.8Y-10.6
X9.8Y-11.2
X9.8Y-11.4
X9.8Y-12.0
X9.8Y-12.45
X9.8Y-12.75
X9.8Y-13.0
X9.8Y-13.3
X9.8Y-13.55
X9.8Y-13.85
X9.9Y-6.95
X9.9Y-7.25
X9.9Y-7.4
X9.9Y-8.0
X9.9Y-8.2
X9.9Y-8.8
X9.9Y-9.0
X9.9Y-9.6
X9.9Y-9.8
X9.9Y-10.4
X9.9Y-10.6
X9.9Y-11.2
X9.9Y-11.4
X9.9Y-12.0
X9.9Y-12.45
X9.9Y-12.75
X9.9Y-13.0
X9.9Y-13.3
X9.9Y-13.55
X9.9Y-13.85
X10.0Y-6.95
X10.0Y-7.25
X10.0Y-7.4
X10.0Y-8.0
X10.0Y-8.2
X10.0Y-8.8
X10.0Y-9.0
X10.0Y-9.6
X10.0Y-9.8
X10.0Y-10.4
X10.0Y-10.6
X10.0Y-11.2
X10.0Y-11.4
X10.0Y-12.0
X10.0Y-12.45
X10.0Y-12.75
X10.0Y-13.0
X10.0Y-13.3
X10.0Y-13.55
X10.0Y-13.85
X10.1Y-6.95
X10.1Y-7.25
X10.1Y-7.4
X10.1Y-8.0
X10.1Y-8.2
X10.1Y-8.8
X10.1Y-9.0
X10.1Y-9.6
X10.1Y-9.8
X10.1Y-10.4
X10.1Y-10.6
X10.1Y-11.2
X10.1Y-11.4
X10.1Y-12.0
X10.1Y-12.45
X10.1Y-12.75
X10.1Y-13.0
X10.1Y-13.3
X10.1Y-13.55
X10.1Y-13.85
X10.2Y-6.95
X10.2Y-7.25
X10.2Y-7.4
X10.2Y-8.0
X10.2Y-8.2
X10.2Y-8.8
X10.2Y-9.0
X10.2Y-9.6
X10.2Y-9.8
X10.2Y-10.4
X10.2Y-10.6
X10.2Y-11.2
X10.2Y-11.4
X10.2Y-12.0
X10.2Y-12.45
X10.2Y-12.75
X10.2Y-13.0
X10.2Y-13.3
X10.2Y-13.55
X10.2Y-13.85
X10.3Y-6.95
X10.3Y-7.25
X10.3Y-7.4
X10.3Y-8.0
X10.3Y-8.2
X10.3Y-8.8
X10.3Y-9.0
X10.3Y-9.6
X10.3Y-9.8
X10.3Y-10.4
X10.3Y-10.6
X10.3Y-11.2
X10.3Y-11.4
X10.3Y-12.0
X10.3Y-12.45
X10.3Y-12.75
X10.3Y-13.0
X10.3Y-13.3
X10.3Y-13.55
X10.3Y-13.85
X10.4Y-6.95
X10.4Y-7.25
X10.4Y-7.4
X10.4Y-8.0
X10.4Y-8.2
X10.4Y-8.8
X10.4Y-9.0
X10.4Y-9.6
X10.4Y-9.8
X10.4Y-10.4
X10.4Y-10.6
X10.4Y-11.2
X10.4Y-11.4
X10.4Y-12.0
X10.4Y-12.45
X10.4Y-12.75
X10.4Y-13.0
X10.4Y-13.3
X10.4Y-13.55
X10.4Y-13.85
X10.5Y-6.95
X10.5Y-7.25
X10.5Y-7.4
X10.5Y-8.0
X10.5Y-8.2
X10.5Y-8.8
X10.5Y-9.0
X10.5Y-9.6
X10.5Y-9.8
X10.5Y-10.4
X10.5Y-10.6
X10.5Y-11.2
X10.5Y-11.4
X10.5Y-12.0
X10.5Y-12.45
X10.5Y-12.75
X10.5Y-13.0
X10.5Y-13.3
X10.5Y-13.55
X10.5Y-13.85
X10.6Y-7.4
X10.6Y-8.0
X10.6Y-8.2
X10.6Y-8.8
X10.6Y-9.0
X10.6Y-9.6
X10.6Y-9.8
X10.6Y-10.4
X10.6Y-10.6
X10.6Y-11.2
X10.6Y-11.4
X10.6Y-12.0
X10.7Y-7.4
X10.7Y-8.0
X10.7Y-8.2
X10.7Y-8.8
X10.7Y-9.0
X10.7Y-9.6
X10.7Y-9.8
X10.7Y-10.4
X10.7Y-10.6
X10.7Y-11.2
X10.7Y-11.4
X10.7Y-12.0
X10.8Y-7.4
X10.8Y-8.0
X10.8Y-8.2
X10.8Y-8.8
X10.8Y-9.0
X10.8Y-9.6
X10.8Y-9.8
X10.8Y-10.4
X10.8Y-10.6
X10.8Y-11.2
X10.8Y-11.4
X10.8Y-12.0
X10.9Y-7.4
X10.9Y-8.0
X10.9Y-8.2
X10.9Y-8.8
X10.9Y-9.0
X10.9Y-9.6
X10.9Y-9.8
X10.9Y-10.4
X10.9Y-10.6
X10.9Y-11.2
X10.9Y-11.4
X10.9Y-12.0
X11.02Y-13.32
X11.02Y-13.4184
X11.3Y-6.4
X11.3Y-6.7
X11.3Y-6.95
X11.3Y-7.25
X11.3Y-7.5
X11.3Y-7.8
X11.3Y-8.05
X11.3Y-8.35
X11.3Y-8.6
X11.3Y-8.9
X11.3Y-11.35
X11.3Y-11.65
X11.3Y-11.9
X11.3Y-12.2
X11.3Y-12.45
X11.3Y-12.75
X11.3Y-13.0
X11.3Y-13.3
X11.3Y-13.55
X11.3Y-13.85
X11.4Y-6.4
X11.4Y-6.7
X11.4Y-6.95
X11.4Y-7.25
X11.4Y-7.5
X11.4Y-7.8
X11.4Y-8.05
X11.4Y-8.35
X11.4Y-8.6
X11.4Y-8.9
X11.4Y-11.35
X11.4Y-11.65
X11.4Y-11.9
X11.4Y-12.2
X11.4Y-12.45
X11.4Y-12.75
X11.4Y-13.0
X11.4Y-13.3
X11.4Y-13.55
X11.4Y-13.85
X11.45Y-9.2
X11.45Y-9.3
X11.45Y-9.4
X11.45Y-9.5
X11.45Y-9.6
X11.45Y-9.7
X11.45Y-9.8
X11.45Y-9.9
X11.45Y-10.0
X11.45Y-10.1
X11.45Y-10.2
X11.45Y-10.3
X11.45Y-10.4
X11.45Y-10.5
X11.45Y-10.6
X11.45Y-10.7
X11.45Y-10.8
X11.45Y-10.9
X11.45Y-11.0
X11.45Y-11.1
X11.5Y-6.4
X11.5Y-6.7
X11.5Y-6.95
X11.5Y-7.25
X11.5Y-7.5
X11.5Y-7.8
X11.5Y-8.05
X11.5Y-8.35
X11.5Y-8.6
X11.5Y-8.9
X11.5Y-11.35
X11.5Y-11.65
X11.5Y-11.9
X11.5Y-12.2
X11.5Y-12.45
X11.5Y-12.75
X11.5Y-13.0
X11.5Y-13.3
X11.5Y-13.55
X11.5Y-13.85
X11.6Y-6.4
X11.6Y-6.7
X11.6Y-6.95
X11.6Y-7.25
X11.6Y-7.5
X11.6Y-7.8
X11.6Y-8.05
X11.6Y-8.35
X11.6Y-8.6
X11.6Y-8.9
X11.6Y-11.35
X11.6Y-11.65
X11.6Y-11.9
X11.6Y-12.2
X11.6Y-12.45
X11.6Y-12.75
X11.6Y-13.0
X11.6Y-13.3
X11.6Y-13.55
X11.6Y-13.85
X11.7Y-6.4
X11.7Y-6.7
X11.7Y-6.95
X11.7Y-7.25
X11.7Y-7.5
X11.7Y-7.8
X11.7Y-8.05
X11.7Y-8.35
X11.7Y-8.6
X11.7Y-8.9
X11.7Y-11.35
X11.7Y-11.65
X11.7Y-11.9
X11.7Y-12.2
X11.7Y-12.45
X11.7Y-12.75
X11.7Y-13.0
X11.7Y-13.3
X11.7Y-13.55
X11.7Y-13.85
X11.8Y-6.4
X11.8Y-6.7
X11.8Y-6.95
X11.8Y-7.25
X11.8Y-7.5
X11.8Y-7.8
X11.8Y-8.05
X11.8Y-8.35
X11.8Y-8.6
X11.8Y-8.9
X11.8Y-11.35
X11.8Y-11.65
X11.8Y-11.9
X11.8Y-12.2
X11.8Y-12.45
X11.8Y-12.75
X11.8Y-13.0
X11.8Y-13.3
X11.8Y-13.55
X11.8Y-13.85
X11.86Y-14.38
X11.9Y-6.4
X11.9Y-6.7
X11.9Y-6.95
X11.9Y-7.25
X11.9Y-7.5
X11.9Y-7.8
X11.9Y-8.05
X11.9Y-8.35
X11.9Y-8.6
X11.9Y-8.9
X11.9Y-11.35
X11.9Y-11.65
X11.9Y-11.9
X11.9Y-12.2
X11.9Y-12.45
X11.9Y-12.75
X11.9Y-13.0
X11.9Y-13.3
X11.9Y-13.55
X11.9Y-13.85
X11.9584Y-14.38
X12.0Y-6.95
X12.0Y-7.25
X12.0Y-7.5
X12.0Y-7.8
X12.0Y-8.05
X12.0Y-8.35
X12.0Y-8.6
X12.0Y-8.9
X12.0Y-11.35
X12.0Y-11.65
X12.0Y-11.9
X12.0Y-12.2
X12.0Y-12.45
X12.0Y-12.75
X12.0Y-13.0
X12.0Y-13.3
X12.0Y-13.55
X12.0Y-13.85
X12.05Y-9.2
X12.05Y-9.3
X12.05Y-9.4
X12.05Y-9.5
X12.05Y-9.6
X12.05Y-9.7
X12.05Y-9.8
X12.05Y-9.9
X12.05Y-10.0
X12.05Y-10.1
X12.05Y-10.2
X12.05Y-10.3
X12.05Y-10.4
X12.05Y-10.5
X12.05Y-10.6
X12.05Y-10.7
X12.05Y-10.8
X12.05Y-10.9
X12.05Y-11.0
X12.05Y-11.1
X12.24Y-13.1216
X12.24Y-13.22
X12.36Y-13.1216
X12.36Y-13.22
X12.4Y-13.55
X12.4Y-13.85
X12.5Y-13.12
X12.5Y-13.2184
X12.5Y-13.55
X12.5Y-13.85
X12.6Y-13.55
X12.6Y-13.85
X12.62Y-13.12
X12.62Y-13.2184
X12.7Y-13.55
X12.7Y-13.85
X12.8Y-13.55
X12.8Y-13.85
X12.9Y-13.55
X12.9Y-13.85
X13.0Y-13.55
X13.0Y-13.85
X13.0392Y-6.4033
X13.0392Y-6.7033
X13.1Y-13.55
X13.1Y-13.85
X13.1392Y-6.4033
X13.1392Y-6.7033
X13.2392Y-6.4033
X13.2392Y-6.7033
X13.3392Y-6.4033
X13.3392Y-6.7033
X13.4Y-13.0
X13.4Y-13.3
X13.4392Y-6.4033
X13.4392Y-6.7033
X13.5Y-13.0
X13.5Y-13.3
X13.5Y-13.56
X13.5392Y-6.4033
X13.5392Y-6.7033
X13.5984Y-13.56
X13.6Y-13.0
X13.6Y-13.3
X13.6392Y-6.4033
X13.6392Y-6.7033
X13.7Y-13.0
X13.7Y-13.3
X13.7392Y-6.4033
X13.7392Y-6.7033
X13.8Y-13.0
X13.8Y-13.3
X13.9Y-13.0
X13.9Y-13.3
X14.0Y-13.0
X14.0Y-13.3
X14.06Y-13.52
X14.36Y-13.52
X14.4Y-12.75
X14.4Y-13.0
X14.4Y-13.3
X14.5Y-12.75
X14.5Y-13.0
X14.5Y-13.3
X14.6Y-12.75
X14.6Y-13.0
X14.6Y-13.3
X14.7Y-12.75
X14.7Y-13.0
X14.7Y-13.3
X14.8Y-12.75
X14.9Y-12.75
X14.9557Y-6.2645
X15.0Y-12.75
X15.06Y-14.02
X15.06Y-14.18
X15.1Y-12.75
X15.1526Y-6.2645
X15.1584Y-14.02
X15.1584Y-14.18
X15.1805Y-6.629
X15.22Y-12.94
X15.3184Y-12.94
X15.3774Y-6.629
X15.5971Y-7.4593
X15.794Y-7.4593
T5
X11.56Y-14.16
X11.9537Y-14.16
T6
X14.1238Y-14.0086
X14.1238Y-14.2054
X14.2223Y-14.107
T7
X14.8Y-14.02
X14.8Y-14.12
X14.8Y-14.22
X14.8Y-14.32
T8
X12.7961Y-7.0879
X12.7961Y-7.2379
X12.7969Y-7.8368
X12.7969Y-7.9868
X12.7969Y-8.5848
X12.7969Y-8.7348
X12.7969Y-9.3329
X12.7969Y-9.4829
X12.7969Y-10.0809
X12.7969Y-10.2309
X12.7969Y-10.8289
X12.7969Y-10.9789
X12.7969Y-11.577
X12.7969Y-11.727
X12.7969Y-12.325
X12.7969Y-12.475
X12.8961Y-7.0879
X12.8961Y-7.2379
X12.8969Y-7.8368
X12.8969Y-7.9868
X12.8969Y-8.5848
X12.8969Y-8.7348
X12.8969Y-9.3329
X12.8969Y-9.4829
X12.8969Y-10.0809
X12.8969Y-10.2309
X12.8969Y-10.8289
X12.8969Y-10.9789
X12.8969Y-11.577
X12.8969Y-11.727
X12.8969Y-12.325
X12.8969Y-12.475
X12.9961Y-7.0879
X12.9961Y-7.2379
X12.9969Y-7.8368
X12.9969Y-7.9868
X12.9969Y-8.5848
X12.9969Y-8.7348
X12.9969Y-9.3329
X12.9969Y-9.4829
X12.9969Y-10.0809
X12.9969Y-10.2309
X12.9969Y-10.8289
X12.9969Y-10.9789
X12.9969Y-11.577
X12.9969Y-11.727
X12.9969Y-12.325
X12.9969Y-12.475
X13.0961Y-7.0879
X13.0961Y-7.2379
X13.0969Y-7.8368
X13.0969Y-7.9868
X13.0969Y-8.5848
X13.0969Y-8.7348
X13.0969Y-9.3329
X13.0969Y-9.4829
X13.0969Y-10.0809
X13.0969Y-10.2309
X13.0969Y-10.8289
X13.0969Y-10.9789
X13.0969Y-11.577
X13.0969Y-11.727
X13.0969Y-12.325
X13.0969Y-12.475
X13.1961Y-7.0879
X13.1961Y-7.2379
X13.1969Y-7.8368
X13.1969Y-7.9868
X13.1969Y-8.5848
X13.1969Y-8.7348
X13.1969Y-9.3329
X13.1969Y-9.4829
X13.1969Y-10.0809
X13.1969Y-10.2309
X13.1969Y-10.8289
X13.1969Y-10.9789
X13.1969Y-11.577
X13.1969Y-11.727
X13.1969Y-12.325
X13.1969Y-12.475
X13.2961Y-7.0879
X13.2961Y-7.2379
X13.2969Y-7.8368
X13.2969Y-7.9868
X13.2969Y-8.5848
X13.2969Y-8.7348
X13.2969Y-9.3329
X13.2969Y-9.4829
X13.2969Y-10.0809
X13.2969Y-10.2309
X13.2969Y-10.8289
X13.2969Y-10.9789
X13.2969Y-11.577
X13.2969Y-11.727
X13.2969Y-12.325
X13.2969Y-12.475
X13.3961Y-7.0879
X13.3961Y-7.2379
X13.3969Y-7.8368
X13.3969Y-7.9868
X13.3969Y-8.5848
X13.3969Y-8.7348
X13.3969Y-9.3329
X13.3969Y-9.4829
X13.3969Y-10.0809
X13.3969Y-10.2309
X13.3969Y-10.8289
X13.3969Y-10.9789
X13.3969Y-11.577
X13.3969Y-11.727
X13.3969Y-12.325
X13.3969Y-12.475
X13.4961Y-7.0879
X13.4961Y-7.2379
X13.4969Y-7.8368
X13.4969Y-7.9868
X13.4969Y-8.5848
X13.4969Y-8.7348
X13.4969Y-9.3329
X13.4969Y-9.4829
X13.4969Y-10.0809
X13.4969Y-10.2309
X13.4969Y-10.8289
X13.4969Y-10.9789
X13.4969Y-11.577
X13.4969Y-11.727
X13.4969Y-12.325
X13.4969Y-12.475
X13.5961Y-7.0879
X13.5961Y-7.2379
X13.5969Y-7.8368
X13.5969Y-7.9868
X13.5969Y-8.5848
X13.5969Y-8.7348
X13.5969Y-9.3329
X13.5969Y-9.4829
X13.5969Y-10.0809
X13.5969Y-10.2309
X13.5969Y-10.8289
X13.5969Y-10.9789
X13.5969Y-11.577
X13.5969Y-11.727
X13.5969Y-12.325
X13.5969Y-12.475
X13.6961Y-7.0879
X13.6961Y-7.2379
X13.6969Y-7.8368
X13.6969Y-7.9868
X13.6969Y-8.5848
X13.6969Y-8.7348
X13.6969Y-9.3329
X13.6969Y-9.4829
X13.6969Y-10.0809
X13.6969Y-10.2309
X13.6969Y-10.8289
X13.6969Y-10.9789
X13.6969Y-11.577
X13.6969Y-11.727
X13.6969Y-12.325
X13.6969Y-12.475
X13.7961Y-7.0879
X13.7961Y-7.2379
X13.7969Y-7.8368
X13.7969Y-7.9868
X13.7969Y-8.5848
X13.7969Y-8.7348
X13.7969Y-9.3329
X13.7969Y-9.4829
X13.7969Y-10.0809
X13.7969Y-10.2309
X13.7969Y-10.8289
X13.7969Y-10.9789
X13.7969Y-11.577
X13.7969Y-11.727
X13.7969Y-12.325
X13.7969Y-12.475
X13.8961Y-7.0879
X13.8961Y-7.2379
X13.8969Y-7.8368
X13.8969Y-7.9868
X13.8969Y-8.5848
X13.8969Y-8.7348
X13.8969Y-9.3329
X13.8969Y-9.4829
X13.8969Y-10.0809
X13.8969Y-10.2309
X13.8969Y-10.8289
X13.8969Y-10.9789
X13.8969Y-11.577
X13.8969Y-11.727
X13.8969Y-12.325
X13.8969Y-12.475
X13.9961Y-7.0879
X13.9961Y-7.2379
X13.9969Y-7.8368
X13.9969Y-7.9868
X13.9969Y-8.5848
X13.9969Y-8.7348
X13.9969Y-9.3329
X13.9969Y-9.4829
X13.9969Y-10.0809
X13.9969Y-10.2309
X13.9969Y-10.8289
X13.9969Y-10.9789
X13.9969Y-11.577
X13.9969Y-11.727
X13.9969Y-12.325
X13.9969Y-12.475
X14.0961Y-7.0879
X14.0961Y-7.2379
X14.0969Y-7.8368
X14.0969Y-7.9868
X14.0969Y-8.5848
X14.0969Y-8.7348
X14.0969Y-9.3329
X14.0969Y-9.4829
X14.0969Y-10.0809
X14.0969Y-10.2309
X14.0969Y-10.8289
X14.0969Y-10.9789
X14.0969Y-11.577
X14.0969Y-11.727
X14.0969Y-12.325
X14.0969Y-12.475
X14.1961Y-7.0879
X14.1961Y-7.2379
X14.1969Y-7.8368
X14.1969Y-7.9868
X14.1969Y-8.5848
X14.1969Y-8.7348
X14.1969Y-9.3329
X14.1969Y-9.4829
X14.1969Y-10.0809
X14.1969Y-10.2309
X14.1969Y-10.8289
X14.1969Y-10.9789
X14.1969Y-11.577
X14.1969Y-11.727
X14.1969Y-12.325
X14.1969Y-12.475
X14.2961Y-7.0879
X14.2961Y-7.2379
X14.2969Y-7.8368
X14.2969Y-7.9868
X14.2969Y-8.5848
X14.2969Y-8.7348
X14.2969Y-9.3329
X14.2969Y-9.4829
X14.2969Y-10.0809
X14.2969Y-10.2309
X14.2969Y-10.8289
X14.2969Y-10.9789
X14.2969Y-11.577
X14.2969Y-11.727
X14.2969Y-12.325
X14.2969Y-12.475
X14.3961Y-7.0879
X14.3961Y-7.2379
X14.3969Y-7.8368
X14.3969Y-7.9868
X14.3969Y-8.5848
X14.3969Y-8.7348
X14.3969Y-9.3329
X14.3969Y-9.4829
X14.3969Y-10.0809
X14.3969Y-10.2309
X14.3969Y-10.8289
X14.3969Y-10.9789
X14.3969Y-11.577
X14.3969Y-11.727
X14.3969Y-12.325
X14.3969Y-12.475
X14.4961Y-7.0879
X14.4961Y-7.2379
X14.4969Y-7.8368
X14.4969Y-7.9868
X14.4969Y-8.5848
X14.4969Y-8.7348
X14.4969Y-9.3329
X14.4969Y-9.4829
X14.4969Y-10.0809
X14.4969Y-10.2309
X14.4969Y-10.8289
X14.4969Y-10.9789
X14.4969Y-11.577
X14.4969Y-11.727
X14.4969Y-12.325
X14.4969Y-12.475
X14.5961Y-7.0879
X14.5961Y-7.2379
X14.5969Y-7.8368
X14.5969Y-7.9868
X14.5969Y-8.5848
X14.5969Y-8.7348
X14.5969Y-9.3329
X14.5969Y-9.4829
X14.5969Y-10.0809
X14.5969Y-10.2309
X14.5969Y-10.8289
X14.5969Y-10.9789
X14.5969Y-11.577
X14.5969Y-11.727
X14.5969Y-12.325
X14.5969Y-12.475
X14.6961Y-7.0879
X14.6961Y-7.2379
X14.6969Y-7.8368
X14.6969Y-7.9868
X14.6969Y-8.5848
X14.6969Y-8.7348
X14.6969Y-9.3329
X14.6969Y-9.4829
X14.6969Y-10.0809
X14.6969Y-10.2309
X14.6969Y-10.8289
X14.6969Y-10.9789
X14.6969Y-11.577
X14.6969Y-11.727
X14.6969Y-12.325
X14.6969Y-12.475
X14.7961Y-7.0879
X14.7961Y-7.2379
X14.7969Y-7.8368
X14.7969Y-7.9868
X14.7969Y-8.5848
X14.7969Y-8.7348
X14.7969Y-9.3329
X14.7969Y-9.4829
X14.7969Y-10.0809
X14.7969Y-10.2309
X14.7969Y-10.8289
X14.7969Y-10.9789
X14.7969Y-11.577
X14.7969Y-11.727
X14.7969Y-12.325
X14.7969Y-12.475
X14.8961Y-7.0879
X14.8961Y-7.2379
X14.8969Y-7.8368
X14.8969Y-7.9868
X14.8969Y-8.5848
X14.8969Y-8.7348
X14.8969Y-9.3329
X14.8969Y-9.4829
X14.8969Y-10.0809
X14.8969Y-10.2309
X14.8969Y-10.8289
X14.8969Y-10.9789
X14.8969Y-11.577
X14.8969Y-11.727
X14.8969Y-12.325
X14.8969Y-12.475
X14.9961Y-7.0879
X14.9961Y-7.2379
X14.9969Y-7.8368
X14.9969Y-7.9868
X14.9969Y-8.5848
X14.9969Y-8.7348
X14.9969Y-9.3329
X14.9969Y-9.4829
X14.9969Y-10.0809
X14.9969Y-10.2309
X14.9969Y-10.8289
X14.9969Y-10.9789
X14.9969Y-11.577
X14.9969Y-11.727
X14.9969Y-12.325
X14.9969Y-12.475
X15.0961Y-7.0879
X15.0961Y-7.2379
X15.0969Y-7.8368
X15.0969Y-7.9868
X15.0969Y-8.5848
X15.0969Y-8.7348
X15.0969Y-9.3329
X15.0969Y-9.4829
X15.0969Y-10.0809
X15.0969Y-10.2309
X15.0969Y-10.8289
X15.0969Y-10.9789
X15.0969Y-11.577
X15.0969Y-11.727
X15.0969Y-12.325
X15.0969Y-12.475
X15.1961Y-7.0879
X15.1961Y-7.2379
X15.1969Y-7.8368
X15.1969Y-7.9868
X15.1969Y-8.5848
X15.1969Y-8.7348
X15.1969Y-9.3329
X15.1969Y-9.4829
X15.1969Y-10.0809
X15.1969Y-10.2309
X15.1969Y-10.8289
X15.1969Y-10.9789
X15.1969Y-11.577
X15.1969Y-11.727
X15.1969Y-12.325
X15.1969Y-12.475
T9
X14.472Y-6.321
X14.6098Y-6.321
T7
G00X15.6Y-13.1394
M15
G01X15.6Y-13.0606
M16
G05
G00X15.6Y-13.6194
M15
G01X15.6Y-13.5406
M16
G05
G00X15.6795Y-14.0008
M15
G01X15.6204Y-14.0008
M16
G05
G00X15.6795Y-14.3552
M15
G01X15.6204Y-14.3552
M16
G05
G00X15.6893Y-14.1524
M15
G01X15.6893Y-14.2036
M16
G05
G00X15.7575Y-12.915
M15
G01X15.6787Y-12.915
M16
G05
G00X15.7575Y-13.395
M15
G01X15.6787Y-13.395
M16
G05
G00X15.8362Y-13.1394
M15
G01X15.8362Y-13.0606
M16
G05
G00X15.8362Y-13.6194
M15
G01X15.8362Y-13.5406
M16
G05
G00X15.9255Y-14.1386
M15
G01X15.9255Y-14.2174
M16
G05
T0
M30
