G04 #@! TF.GenerationSoftware,KiCad,Pcbnew,6.0.0-d3dd2cf0fa~116~ubuntu21.10.1*
G04 #@! TF.CreationDate,2022-01-15T20:47:48-06:00*
G04 #@! TF.ProjectId,applebrd,6170706c-6562-4726-942e-6b696361645f,rev?*
G04 #@! TF.SameCoordinates,Original*
G04 #@! TF.FileFunction,Soldermask,Bot*
G04 #@! TF.FilePolarity,Negative*
%FSLAX46Y46*%
G04 Gerber Fmt 4.6, Leading zero omitted, Abs format (unit mm)*
G04 Created by KiCad (PCBNEW 6.0.0-d3dd2cf0fa~116~ubuntu21.10.1) date 2022-01-15 20:47:48*
%MOMM*%
%LPD*%
G01*
G04 APERTURE LIST*
G04 Aperture macros list*
%AMRoundRect*
0 Rectangle with rounded corners*
0 $1 Rounding radius*
0 $2 $3 $4 $5 $6 $7 $8 $9 X,Y pos of 4 corners*
0 Add a 4 corners polygon primitive as box body*
4,1,4,$2,$3,$4,$5,$6,$7,$8,$9,$2,$3,0*
0 Add four circle primitives for the rounded corners*
1,1,$1+$1,$2,$3*
1,1,$1+$1,$4,$5*
1,1,$1+$1,$6,$7*
1,1,$1+$1,$8,$9*
0 Add four rect primitives between the rounded corners*
20,1,$1+$1,$2,$3,$4,$5,0*
20,1,$1+$1,$4,$5,$6,$7,0*
20,1,$1+$1,$6,$7,$8,$9,0*
20,1,$1+$1,$8,$9,$2,$3,0*%
G04 Aperture macros list end*
%ADD10C,1.620000*%
%ADD11RoundRect,0.250000X-0.650000X-1.550000X0.650000X-1.550000X0.650000X1.550000X-0.650000X1.550000X0*%
%ADD12O,1.800000X3.600000*%
%ADD13R,2.000000X4.000000*%
%ADD14O,2.000000X3.300000*%
%ADD15O,3.500000X2.000000*%
%ADD16C,1.600000*%
%ADD17R,1.600000X1.600000*%
%ADD18O,1.600000X1.600000*%
%ADD19R,1.050000X1.500000*%
%ADD20O,1.050000X1.500000*%
%ADD21C,1.400000*%
%ADD22O,1.400000X1.400000*%
%ADD23R,1.500000X1.050000*%
%ADD24O,1.500000X1.050000*%
%ADD25R,3.500000X3.500000*%
%ADD26RoundRect,0.750000X0.750000X1.000000X-0.750000X1.000000X-0.750000X-1.000000X0.750000X-1.000000X0*%
%ADD27RoundRect,0.875000X0.875000X0.875000X-0.875000X0.875000X-0.875000X-0.875000X0.875000X-0.875000X0*%
%ADD28R,1.700000X1.700000*%
%ADD29O,1.700000X1.700000*%
%ADD30O,1.727200X1.727200*%
%ADD31C,1.727200*%
%ADD32R,1.500000X1.500000*%
%ADD33O,1.500000X1.500000*%
G04 APERTURE END LIST*
D10*
X358745400Y-360817800D03*
X361245400Y-358317800D03*
X358745400Y-355817800D03*
D11*
X367588800Y-160553400D03*
D12*
X371088800Y-160553400D03*
D13*
X404508600Y-360121200D03*
D14*
X398508600Y-360121200D03*
D15*
X397508600Y-355621200D03*
X397508600Y-364621200D03*
D16*
X395508600Y-360121200D03*
D17*
X357124000Y-343408000D03*
D18*
X364744000Y-343408000D03*
D19*
X273304000Y-347980000D03*
D20*
X274574000Y-347980000D03*
X275844000Y-347980000D03*
D19*
X339852000Y-360172000D03*
D20*
X341122000Y-360172000D03*
X342392000Y-360172000D03*
D19*
X74168000Y-331724000D03*
D20*
X75438000Y-331724000D03*
X76708000Y-331724000D03*
D21*
X261112000Y-359664000D03*
D22*
X256032000Y-359664000D03*
D21*
X324982840Y-356930960D03*
D22*
X319902840Y-356930960D03*
D21*
X320040000Y-364236000D03*
D22*
X325120000Y-364236000D03*
D21*
X320040000Y-360680000D03*
D22*
X325120000Y-360680000D03*
D21*
X351028000Y-364744000D03*
D22*
X356108000Y-364744000D03*
D21*
X383540000Y-350520000D03*
D22*
X378460000Y-350520000D03*
D21*
X114808000Y-196088000D03*
D22*
X114808000Y-191008000D03*
D21*
X109728000Y-191008000D03*
D22*
X109728000Y-196088000D03*
D21*
X79248000Y-338328000D03*
D22*
X74168000Y-338328000D03*
D21*
X360680000Y-332740000D03*
D22*
X360680000Y-337820000D03*
D21*
X377952000Y-337820000D03*
D22*
X377952000Y-332740000D03*
D21*
X381000000Y-337820000D03*
D22*
X381000000Y-332740000D03*
D21*
X383540000Y-343916000D03*
D22*
X378460000Y-343916000D03*
D21*
X384048000Y-337820000D03*
D22*
X384048000Y-332740000D03*
D21*
X325628000Y-332232000D03*
D22*
X325628000Y-337312000D03*
D21*
X329184000Y-332232000D03*
D22*
X329184000Y-337312000D03*
D21*
X332740000Y-332232000D03*
D22*
X332740000Y-337312000D03*
D21*
X336296000Y-332232000D03*
D22*
X336296000Y-337312000D03*
D21*
X340868000Y-353568000D03*
D22*
X340868000Y-348488000D03*
D21*
X117856000Y-344424000D03*
D22*
X122936000Y-344424000D03*
D21*
X70104000Y-344424000D03*
D22*
X65024000Y-344424000D03*
D21*
X274828000Y-340868000D03*
D22*
X269748000Y-340868000D03*
D21*
X386588000Y-332740000D03*
D22*
X386588000Y-337820000D03*
D21*
X159004000Y-340360000D03*
D22*
X164084000Y-340360000D03*
D17*
X172720000Y-298958000D03*
D18*
X175260000Y-298958000D03*
X177800000Y-298958000D03*
X180340000Y-298958000D03*
X182880000Y-298958000D03*
X185420000Y-298958000D03*
X187960000Y-298958000D03*
X190500000Y-298958000D03*
D17*
X58420000Y-184150000D03*
D18*
X60960000Y-184150000D03*
X63500000Y-184150000D03*
X66040000Y-184150000D03*
X68580000Y-184150000D03*
X71120000Y-184150000D03*
X73660000Y-184150000D03*
X73660000Y-176530000D03*
X71120000Y-176530000D03*
X68580000Y-176530000D03*
X66040000Y-176530000D03*
X63500000Y-176530000D03*
X60960000Y-176530000D03*
X58420000Y-176530000D03*
D17*
X58420000Y-198120000D03*
D18*
X60960000Y-198120000D03*
X63500000Y-198120000D03*
X66040000Y-198120000D03*
X68580000Y-198120000D03*
X71120000Y-198120000D03*
X73660000Y-198120000D03*
X76200000Y-198120000D03*
X76200000Y-190500000D03*
X73660000Y-190500000D03*
X71120000Y-190500000D03*
X68580000Y-190500000D03*
X66040000Y-190500000D03*
X63500000Y-190500000D03*
X60960000Y-190500000D03*
X58420000Y-190500000D03*
D17*
X58420000Y-207010000D03*
D18*
X58420000Y-209550000D03*
X58420000Y-212090000D03*
X58420000Y-214630000D03*
X58420000Y-217170000D03*
X58420000Y-219710000D03*
X58420000Y-222250000D03*
X58420000Y-224790000D03*
X58420000Y-227330000D03*
X58420000Y-229870000D03*
X58420000Y-232410000D03*
X58420000Y-234950000D03*
X73660000Y-234950000D03*
X73660000Y-232410000D03*
X73660000Y-229870000D03*
X73660000Y-227330000D03*
X73660000Y-224790000D03*
X73660000Y-222250000D03*
X73660000Y-219710000D03*
X73660000Y-217170000D03*
X73660000Y-214630000D03*
X73660000Y-212090000D03*
X73660000Y-209550000D03*
X73660000Y-207010000D03*
D17*
X58420000Y-267970000D03*
D18*
X60960000Y-267970000D03*
X63500000Y-267970000D03*
X66040000Y-267970000D03*
X68580000Y-267970000D03*
X71120000Y-267970000D03*
X73660000Y-267970000D03*
X76200000Y-267970000D03*
X76200000Y-260350000D03*
X73660000Y-260350000D03*
X71120000Y-260350000D03*
X68580000Y-260350000D03*
X66040000Y-260350000D03*
X63500000Y-260350000D03*
X60960000Y-260350000D03*
X58420000Y-260350000D03*
D17*
X58420000Y-254000000D03*
D18*
X60960000Y-254000000D03*
X63500000Y-254000000D03*
X66040000Y-254000000D03*
X68580000Y-254000000D03*
X71120000Y-254000000D03*
X73660000Y-254000000D03*
X76200000Y-254000000D03*
X76200000Y-246380000D03*
X73660000Y-246380000D03*
X71120000Y-246380000D03*
X68580000Y-246380000D03*
X66040000Y-246380000D03*
X63500000Y-246380000D03*
X60960000Y-246380000D03*
X58420000Y-246380000D03*
D17*
X58420000Y-281940000D03*
D18*
X60960000Y-281940000D03*
X63500000Y-281940000D03*
X66040000Y-281940000D03*
X68580000Y-281940000D03*
X71120000Y-281940000D03*
X73660000Y-281940000D03*
X76200000Y-281940000D03*
X76200000Y-274320000D03*
X73660000Y-274320000D03*
X71120000Y-274320000D03*
X68580000Y-274320000D03*
X66040000Y-274320000D03*
X63500000Y-274320000D03*
X60960000Y-274320000D03*
X58420000Y-274320000D03*
D17*
X58420000Y-295910000D03*
D18*
X60960000Y-295910000D03*
X63500000Y-295910000D03*
X66040000Y-295910000D03*
X68580000Y-295910000D03*
X71120000Y-295910000D03*
X73660000Y-295910000D03*
X76200000Y-295910000D03*
X76200000Y-288290000D03*
X73660000Y-288290000D03*
X71120000Y-288290000D03*
X68580000Y-288290000D03*
X66040000Y-288290000D03*
X63500000Y-288290000D03*
X60960000Y-288290000D03*
X58420000Y-288290000D03*
D17*
X58420000Y-309880000D03*
D18*
X60960000Y-309880000D03*
X63500000Y-309880000D03*
X66040000Y-309880000D03*
X68580000Y-309880000D03*
X71120000Y-309880000D03*
X73660000Y-309880000D03*
X73660000Y-302260000D03*
X71120000Y-302260000D03*
X68580000Y-302260000D03*
X66040000Y-302260000D03*
X63500000Y-302260000D03*
X60960000Y-302260000D03*
X58420000Y-302260000D03*
D17*
X58420000Y-323850000D03*
D18*
X60960000Y-323850000D03*
X63500000Y-323850000D03*
X66040000Y-323850000D03*
X68580000Y-323850000D03*
X71120000Y-323850000D03*
X73660000Y-323850000D03*
X73660000Y-316230000D03*
X71120000Y-316230000D03*
X68580000Y-316230000D03*
X66040000Y-316230000D03*
X63500000Y-316230000D03*
X60960000Y-316230000D03*
X58420000Y-316230000D03*
D17*
X96520000Y-170180000D03*
D18*
X99060000Y-170180000D03*
X101600000Y-170180000D03*
X104140000Y-170180000D03*
X106680000Y-170180000D03*
X109220000Y-170180000D03*
X111760000Y-170180000D03*
X114300000Y-170180000D03*
X114300000Y-162560000D03*
X111760000Y-162560000D03*
X109220000Y-162560000D03*
X106680000Y-162560000D03*
X104140000Y-162560000D03*
X101600000Y-162560000D03*
X99060000Y-162560000D03*
X96520000Y-162560000D03*
D17*
X96520000Y-184150000D03*
D18*
X99060000Y-184150000D03*
X101600000Y-184150000D03*
X104140000Y-184150000D03*
X106680000Y-184150000D03*
X109220000Y-184150000D03*
X111760000Y-184150000D03*
X111760000Y-176530000D03*
X109220000Y-176530000D03*
X106680000Y-176530000D03*
X104140000Y-176530000D03*
X101600000Y-176530000D03*
X99060000Y-176530000D03*
X96520000Y-176530000D03*
D17*
X96520000Y-212090000D03*
D18*
X99060000Y-212090000D03*
X101600000Y-212090000D03*
X104140000Y-212090000D03*
X106680000Y-212090000D03*
X109220000Y-212090000D03*
X111760000Y-212090000D03*
X114300000Y-212090000D03*
X114300000Y-204470000D03*
X111760000Y-204470000D03*
X109220000Y-204470000D03*
X106680000Y-204470000D03*
X104140000Y-204470000D03*
X101600000Y-204470000D03*
X99060000Y-204470000D03*
X96520000Y-204470000D03*
D17*
X96520000Y-226060000D03*
D18*
X99060000Y-226060000D03*
X101600000Y-226060000D03*
X104140000Y-226060000D03*
X106680000Y-226060000D03*
X109220000Y-226060000D03*
X111760000Y-226060000D03*
X114300000Y-226060000D03*
X114300000Y-218440000D03*
X111760000Y-218440000D03*
X109220000Y-218440000D03*
X106680000Y-218440000D03*
X104140000Y-218440000D03*
X101600000Y-218440000D03*
X99060000Y-218440000D03*
X96520000Y-218440000D03*
D17*
X96520000Y-240030000D03*
D18*
X99060000Y-240030000D03*
X101600000Y-240030000D03*
X104140000Y-240030000D03*
X106680000Y-240030000D03*
X109220000Y-240030000D03*
X111760000Y-240030000D03*
X114300000Y-240030000D03*
X114300000Y-232410000D03*
X111760000Y-232410000D03*
X109220000Y-232410000D03*
X106680000Y-232410000D03*
X104140000Y-232410000D03*
X101600000Y-232410000D03*
X99060000Y-232410000D03*
X96520000Y-232410000D03*
D17*
X96520000Y-254000000D03*
D18*
X99060000Y-254000000D03*
X101600000Y-254000000D03*
X104140000Y-254000000D03*
X106680000Y-254000000D03*
X109220000Y-254000000D03*
X111760000Y-254000000D03*
X114300000Y-254000000D03*
X114300000Y-246380000D03*
X111760000Y-246380000D03*
X109220000Y-246380000D03*
X106680000Y-246380000D03*
X104140000Y-246380000D03*
X101600000Y-246380000D03*
X99060000Y-246380000D03*
X96520000Y-246380000D03*
D17*
X96520000Y-267970000D03*
D18*
X99060000Y-267970000D03*
X101600000Y-267970000D03*
X104140000Y-267970000D03*
X106680000Y-267970000D03*
X109220000Y-267970000D03*
X111760000Y-267970000D03*
X114300000Y-267970000D03*
X114300000Y-260350000D03*
X111760000Y-260350000D03*
X109220000Y-260350000D03*
X106680000Y-260350000D03*
X104140000Y-260350000D03*
X101600000Y-260350000D03*
X99060000Y-260350000D03*
X96520000Y-260350000D03*
D17*
X96520000Y-281940000D03*
D18*
X99060000Y-281940000D03*
X101600000Y-281940000D03*
X104140000Y-281940000D03*
X106680000Y-281940000D03*
X109220000Y-281940000D03*
X111760000Y-281940000D03*
X114300000Y-281940000D03*
X114300000Y-274320000D03*
X111760000Y-274320000D03*
X109220000Y-274320000D03*
X106680000Y-274320000D03*
X104140000Y-274320000D03*
X101600000Y-274320000D03*
X99060000Y-274320000D03*
X96520000Y-274320000D03*
D17*
X96520000Y-295910000D03*
D18*
X99060000Y-295910000D03*
X101600000Y-295910000D03*
X104140000Y-295910000D03*
X106680000Y-295910000D03*
X109220000Y-295910000D03*
X111760000Y-295910000D03*
X111760000Y-288290000D03*
X109220000Y-288290000D03*
X106680000Y-288290000D03*
X104140000Y-288290000D03*
X101600000Y-288290000D03*
X99060000Y-288290000D03*
X96520000Y-288290000D03*
D17*
X96520000Y-309880000D03*
D18*
X99060000Y-309880000D03*
X101600000Y-309880000D03*
X104140000Y-309880000D03*
X106680000Y-309880000D03*
X109220000Y-309880000D03*
X111760000Y-309880000D03*
X111760000Y-302260000D03*
X109220000Y-302260000D03*
X106680000Y-302260000D03*
X104140000Y-302260000D03*
X101600000Y-302260000D03*
X99060000Y-302260000D03*
X96520000Y-302260000D03*
D17*
X96520000Y-337820000D03*
D18*
X99060000Y-337820000D03*
X101600000Y-337820000D03*
X104140000Y-337820000D03*
X106680000Y-337820000D03*
X109220000Y-337820000D03*
X111760000Y-337820000D03*
X111760000Y-330200000D03*
X109220000Y-330200000D03*
X106680000Y-330200000D03*
X104140000Y-330200000D03*
X101600000Y-330200000D03*
X99060000Y-330200000D03*
X96520000Y-330200000D03*
D17*
X96520000Y-351790000D03*
D18*
X99060000Y-351790000D03*
X101600000Y-351790000D03*
X104140000Y-351790000D03*
X106680000Y-351790000D03*
X109220000Y-351790000D03*
X111760000Y-351790000D03*
X111760000Y-344170000D03*
X109220000Y-344170000D03*
X106680000Y-344170000D03*
X104140000Y-344170000D03*
X101600000Y-344170000D03*
X99060000Y-344170000D03*
X96520000Y-344170000D03*
D17*
X134620000Y-170180000D03*
D18*
X137160000Y-170180000D03*
X139700000Y-170180000D03*
X142240000Y-170180000D03*
X144780000Y-170180000D03*
X147320000Y-170180000D03*
X149860000Y-170180000D03*
X152400000Y-170180000D03*
X152400000Y-162560000D03*
X149860000Y-162560000D03*
X147320000Y-162560000D03*
X144780000Y-162560000D03*
X142240000Y-162560000D03*
X139700000Y-162560000D03*
X137160000Y-162560000D03*
X134620000Y-162560000D03*
D17*
X134620000Y-184150000D03*
D18*
X137160000Y-184150000D03*
X139700000Y-184150000D03*
X142240000Y-184150000D03*
X144780000Y-184150000D03*
X147320000Y-184150000D03*
X149860000Y-184150000D03*
X152400000Y-184150000D03*
X152400000Y-176530000D03*
X149860000Y-176530000D03*
X147320000Y-176530000D03*
X144780000Y-176530000D03*
X142240000Y-176530000D03*
X139700000Y-176530000D03*
X137160000Y-176530000D03*
X134620000Y-176530000D03*
D17*
X134620000Y-323850000D03*
D18*
X137160000Y-323850000D03*
X139700000Y-323850000D03*
X142240000Y-323850000D03*
X144780000Y-323850000D03*
X147320000Y-323850000D03*
X149860000Y-323850000D03*
X152400000Y-323850000D03*
X152400000Y-316230000D03*
X149860000Y-316230000D03*
X147320000Y-316230000D03*
X144780000Y-316230000D03*
X142240000Y-316230000D03*
X139700000Y-316230000D03*
X137160000Y-316230000D03*
X134620000Y-316230000D03*
D17*
X134620000Y-337820000D03*
D18*
X137160000Y-337820000D03*
X139700000Y-337820000D03*
X142240000Y-337820000D03*
X144780000Y-337820000D03*
X147320000Y-337820000D03*
X149860000Y-337820000D03*
X149860000Y-330200000D03*
X147320000Y-330200000D03*
X144780000Y-330200000D03*
X142240000Y-330200000D03*
X139700000Y-330200000D03*
X137160000Y-330200000D03*
X134620000Y-330200000D03*
D17*
X134620000Y-351790000D03*
D18*
X137160000Y-351790000D03*
X139700000Y-351790000D03*
X142240000Y-351790000D03*
X144780000Y-351790000D03*
X147320000Y-351790000D03*
X149860000Y-351790000D03*
X149860000Y-344170000D03*
X147320000Y-344170000D03*
X144780000Y-344170000D03*
X142240000Y-344170000D03*
X139700000Y-344170000D03*
X137160000Y-344170000D03*
X134620000Y-344170000D03*
D17*
X172720000Y-309880000D03*
D18*
X175260000Y-309880000D03*
X177800000Y-309880000D03*
X180340000Y-309880000D03*
X182880000Y-309880000D03*
X185420000Y-309880000D03*
X187960000Y-309880000D03*
X190500000Y-309880000D03*
X190500000Y-302260000D03*
X187960000Y-302260000D03*
X185420000Y-302260000D03*
X182880000Y-302260000D03*
X180340000Y-302260000D03*
X177800000Y-302260000D03*
X175260000Y-302260000D03*
X172720000Y-302260000D03*
D17*
X172720000Y-323850000D03*
D18*
X175260000Y-323850000D03*
X177800000Y-323850000D03*
X180340000Y-323850000D03*
X182880000Y-323850000D03*
X185420000Y-323850000D03*
X187960000Y-323850000D03*
X190500000Y-323850000D03*
X190500000Y-316230000D03*
X187960000Y-316230000D03*
X185420000Y-316230000D03*
X182880000Y-316230000D03*
X180340000Y-316230000D03*
X177800000Y-316230000D03*
X175260000Y-316230000D03*
X172720000Y-316230000D03*
D17*
X172720000Y-337820000D03*
D18*
X175260000Y-337820000D03*
X177800000Y-337820000D03*
X180340000Y-337820000D03*
X182880000Y-337820000D03*
X185420000Y-337820000D03*
X187960000Y-337820000D03*
X190500000Y-337820000D03*
X190500000Y-330200000D03*
X187960000Y-330200000D03*
X185420000Y-330200000D03*
X182880000Y-330200000D03*
X180340000Y-330200000D03*
X177800000Y-330200000D03*
X175260000Y-330200000D03*
X172720000Y-330200000D03*
D17*
X172720000Y-351790000D03*
D18*
X175260000Y-351790000D03*
X177800000Y-351790000D03*
X180340000Y-351790000D03*
X182880000Y-351790000D03*
X185420000Y-351790000D03*
X187960000Y-351790000D03*
X190500000Y-351790000D03*
X190500000Y-344170000D03*
X187960000Y-344170000D03*
X185420000Y-344170000D03*
X182880000Y-344170000D03*
X180340000Y-344170000D03*
X177800000Y-344170000D03*
X175260000Y-344170000D03*
X172720000Y-344170000D03*
D17*
X210820000Y-309880000D03*
D18*
X213360000Y-309880000D03*
X215900000Y-309880000D03*
X218440000Y-309880000D03*
X220980000Y-309880000D03*
X223520000Y-309880000D03*
X226060000Y-309880000D03*
X228600000Y-309880000D03*
X228600000Y-302260000D03*
X226060000Y-302260000D03*
X223520000Y-302260000D03*
X220980000Y-302260000D03*
X218440000Y-302260000D03*
X215900000Y-302260000D03*
X213360000Y-302260000D03*
X210820000Y-302260000D03*
D17*
X210820000Y-323850000D03*
D18*
X213360000Y-323850000D03*
X215900000Y-323850000D03*
X218440000Y-323850000D03*
X220980000Y-323850000D03*
X223520000Y-323850000D03*
X226060000Y-323850000D03*
X228600000Y-323850000D03*
X228600000Y-316230000D03*
X226060000Y-316230000D03*
X223520000Y-316230000D03*
X220980000Y-316230000D03*
X218440000Y-316230000D03*
X215900000Y-316230000D03*
X213360000Y-316230000D03*
X210820000Y-316230000D03*
D17*
X210820000Y-351790000D03*
D18*
X213360000Y-351790000D03*
X215900000Y-351790000D03*
X218440000Y-351790000D03*
X220980000Y-351790000D03*
X223520000Y-351790000D03*
X226060000Y-351790000D03*
X228600000Y-351790000D03*
X228600000Y-344170000D03*
X226060000Y-344170000D03*
X223520000Y-344170000D03*
X220980000Y-344170000D03*
X218440000Y-344170000D03*
X215900000Y-344170000D03*
X213360000Y-344170000D03*
X210820000Y-344170000D03*
D17*
X248920000Y-184150000D03*
D18*
X251460000Y-184150000D03*
X254000000Y-184150000D03*
X256540000Y-184150000D03*
X259080000Y-184150000D03*
X261620000Y-184150000D03*
X264160000Y-184150000D03*
X266700000Y-184150000D03*
X266700000Y-176530000D03*
X264160000Y-176530000D03*
X261620000Y-176530000D03*
X259080000Y-176530000D03*
X256540000Y-176530000D03*
X254000000Y-176530000D03*
X251460000Y-176530000D03*
X248920000Y-176530000D03*
D17*
X248920000Y-323850000D03*
D18*
X251460000Y-323850000D03*
X254000000Y-323850000D03*
X256540000Y-323850000D03*
X259080000Y-323850000D03*
X261620000Y-323850000D03*
X264160000Y-323850000D03*
X266700000Y-323850000D03*
X266700000Y-316230000D03*
X264160000Y-316230000D03*
X261620000Y-316230000D03*
X259080000Y-316230000D03*
X256540000Y-316230000D03*
X254000000Y-316230000D03*
X251460000Y-316230000D03*
X248920000Y-316230000D03*
D17*
X248920000Y-337820000D03*
D18*
X251460000Y-337820000D03*
X254000000Y-337820000D03*
X256540000Y-337820000D03*
X259080000Y-337820000D03*
X261620000Y-337820000D03*
X264160000Y-337820000D03*
X266700000Y-337820000D03*
X266700000Y-330200000D03*
X264160000Y-330200000D03*
X261620000Y-330200000D03*
X259080000Y-330200000D03*
X256540000Y-330200000D03*
X254000000Y-330200000D03*
X251460000Y-330200000D03*
X248920000Y-330200000D03*
D17*
X248920000Y-351790000D03*
D18*
X251460000Y-351790000D03*
X254000000Y-351790000D03*
X256540000Y-351790000D03*
X259080000Y-351790000D03*
X261620000Y-351790000D03*
X264160000Y-351790000D03*
X266700000Y-351790000D03*
X266700000Y-344170000D03*
X264160000Y-344170000D03*
X261620000Y-344170000D03*
X259080000Y-344170000D03*
X256540000Y-344170000D03*
X254000000Y-344170000D03*
X251460000Y-344170000D03*
X248920000Y-344170000D03*
D17*
X287020000Y-170180000D03*
D18*
X289560000Y-170180000D03*
X292100000Y-170180000D03*
X294640000Y-170180000D03*
X297180000Y-170180000D03*
X299720000Y-170180000D03*
X302260000Y-170180000D03*
X302260000Y-162560000D03*
X299720000Y-162560000D03*
X297180000Y-162560000D03*
X294640000Y-162560000D03*
X292100000Y-162560000D03*
X289560000Y-162560000D03*
X287020000Y-162560000D03*
D17*
X287020000Y-351790000D03*
D18*
X289560000Y-351790000D03*
X292100000Y-351790000D03*
X294640000Y-351790000D03*
X297180000Y-351790000D03*
X299720000Y-351790000D03*
X302260000Y-351790000D03*
X304800000Y-351790000D03*
X304800000Y-344170000D03*
X302260000Y-344170000D03*
X299720000Y-344170000D03*
X297180000Y-344170000D03*
X294640000Y-344170000D03*
X292100000Y-344170000D03*
X289560000Y-344170000D03*
X287020000Y-344170000D03*
D17*
X331195680Y-170263820D03*
D18*
X333735680Y-170263820D03*
X336275680Y-170263820D03*
X338815680Y-170263820D03*
X341355680Y-170263820D03*
X343895680Y-170263820D03*
X346435680Y-170263820D03*
X348975680Y-170263820D03*
X348975680Y-162643820D03*
X346435680Y-162643820D03*
X343895680Y-162643820D03*
X341355680Y-162643820D03*
X338815680Y-162643820D03*
X336275680Y-162643820D03*
X333735680Y-162643820D03*
X331195680Y-162643820D03*
D17*
X287020000Y-198120000D03*
D18*
X289560000Y-198120000D03*
X292100000Y-198120000D03*
X294640000Y-198120000D03*
X297180000Y-198120000D03*
X299720000Y-198120000D03*
X302260000Y-198120000D03*
X304800000Y-198120000D03*
X304800000Y-190500000D03*
X302260000Y-190500000D03*
X299720000Y-190500000D03*
X297180000Y-190500000D03*
X294640000Y-190500000D03*
X292100000Y-190500000D03*
X289560000Y-190500000D03*
X287020000Y-190500000D03*
D17*
X287020000Y-212090000D03*
D18*
X289560000Y-212090000D03*
X292100000Y-212090000D03*
X294640000Y-212090000D03*
X297180000Y-212090000D03*
X299720000Y-212090000D03*
X302260000Y-212090000D03*
X304800000Y-212090000D03*
X304800000Y-204470000D03*
X302260000Y-204470000D03*
X299720000Y-204470000D03*
X297180000Y-204470000D03*
X294640000Y-204470000D03*
X292100000Y-204470000D03*
X289560000Y-204470000D03*
X287020000Y-204470000D03*
D17*
X314960000Y-351790000D03*
D18*
X317500000Y-351790000D03*
X320040000Y-351790000D03*
X322580000Y-351790000D03*
X325120000Y-351790000D03*
X327660000Y-351790000D03*
X330200000Y-351790000D03*
X332740000Y-351790000D03*
X332740000Y-344170000D03*
X330200000Y-344170000D03*
X327660000Y-344170000D03*
X325120000Y-344170000D03*
X322580000Y-344170000D03*
X320040000Y-344170000D03*
X317500000Y-344170000D03*
X314960000Y-344170000D03*
D17*
X365760000Y-337820000D03*
D18*
X368300000Y-337820000D03*
X370840000Y-337820000D03*
X373380000Y-337820000D03*
X373380000Y-330200000D03*
X370840000Y-330200000D03*
X368300000Y-330200000D03*
X365760000Y-330200000D03*
D17*
X287020000Y-226060000D03*
D18*
X289560000Y-226060000D03*
X292100000Y-226060000D03*
X294640000Y-226060000D03*
X297180000Y-226060000D03*
X299720000Y-226060000D03*
X302260000Y-226060000D03*
X304800000Y-226060000D03*
X304800000Y-218440000D03*
X302260000Y-218440000D03*
X299720000Y-218440000D03*
X297180000Y-218440000D03*
X294640000Y-218440000D03*
X292100000Y-218440000D03*
X289560000Y-218440000D03*
X287020000Y-218440000D03*
D17*
X287020000Y-295910000D03*
D18*
X289560000Y-295910000D03*
X292100000Y-295910000D03*
X294640000Y-295910000D03*
X297180000Y-295910000D03*
X299720000Y-295910000D03*
X302260000Y-295910000D03*
X304800000Y-295910000D03*
X304800000Y-288290000D03*
X302260000Y-288290000D03*
X299720000Y-288290000D03*
X297180000Y-288290000D03*
X294640000Y-288290000D03*
X292100000Y-288290000D03*
X289560000Y-288290000D03*
X287020000Y-288290000D03*
D17*
X287020000Y-309880000D03*
D18*
X289560000Y-309880000D03*
X292100000Y-309880000D03*
X294640000Y-309880000D03*
X297180000Y-309880000D03*
X299720000Y-309880000D03*
X302260000Y-309880000D03*
X304800000Y-309880000D03*
X304800000Y-302260000D03*
X302260000Y-302260000D03*
X299720000Y-302260000D03*
X297180000Y-302260000D03*
X294640000Y-302260000D03*
X292100000Y-302260000D03*
X289560000Y-302260000D03*
X287020000Y-302260000D03*
D17*
X248920000Y-203200000D03*
D18*
X251460000Y-203200000D03*
X254000000Y-203200000D03*
X256540000Y-203200000D03*
X259080000Y-203200000D03*
X261620000Y-203200000D03*
X264160000Y-203200000D03*
X266700000Y-203200000D03*
X269240000Y-203200000D03*
X271780000Y-203200000D03*
X274320000Y-203200000D03*
X276860000Y-203200000D03*
X276860000Y-187960000D03*
X274320000Y-187960000D03*
X271780000Y-187960000D03*
X269240000Y-187960000D03*
X266700000Y-187960000D03*
X264160000Y-187960000D03*
X261620000Y-187960000D03*
X259080000Y-187960000D03*
X256540000Y-187960000D03*
X254000000Y-187960000D03*
X251460000Y-187960000D03*
X248920000Y-187960000D03*
D17*
X248920000Y-223520000D03*
D18*
X251460000Y-223520000D03*
X254000000Y-223520000D03*
X256540000Y-223520000D03*
X259080000Y-223520000D03*
X261620000Y-223520000D03*
X264160000Y-223520000D03*
X266700000Y-223520000D03*
X269240000Y-223520000D03*
X271780000Y-223520000D03*
X274320000Y-223520000D03*
X276860000Y-223520000D03*
X276860000Y-208280000D03*
X274320000Y-208280000D03*
X271780000Y-208280000D03*
X269240000Y-208280000D03*
X266700000Y-208280000D03*
X264160000Y-208280000D03*
X261620000Y-208280000D03*
X259080000Y-208280000D03*
X256540000Y-208280000D03*
X254000000Y-208280000D03*
X251460000Y-208280000D03*
X248920000Y-208280000D03*
D17*
X248920000Y-243840000D03*
D18*
X251460000Y-243840000D03*
X254000000Y-243840000D03*
X256540000Y-243840000D03*
X259080000Y-243840000D03*
X261620000Y-243840000D03*
X264160000Y-243840000D03*
X266700000Y-243840000D03*
X269240000Y-243840000D03*
X271780000Y-243840000D03*
X274320000Y-243840000D03*
X276860000Y-243840000D03*
X276860000Y-228600000D03*
X274320000Y-228600000D03*
X271780000Y-228600000D03*
X269240000Y-228600000D03*
X266700000Y-228600000D03*
X264160000Y-228600000D03*
X261620000Y-228600000D03*
X259080000Y-228600000D03*
X256540000Y-228600000D03*
X254000000Y-228600000D03*
X251460000Y-228600000D03*
X248920000Y-228600000D03*
D17*
X248920000Y-264160000D03*
D18*
X251460000Y-264160000D03*
X254000000Y-264160000D03*
X256540000Y-264160000D03*
X259080000Y-264160000D03*
X261620000Y-264160000D03*
X264160000Y-264160000D03*
X266700000Y-264160000D03*
X269240000Y-264160000D03*
X271780000Y-264160000D03*
X274320000Y-264160000D03*
X276860000Y-264160000D03*
X276860000Y-248920000D03*
X274320000Y-248920000D03*
X271780000Y-248920000D03*
X269240000Y-248920000D03*
X266700000Y-248920000D03*
X264160000Y-248920000D03*
X261620000Y-248920000D03*
X259080000Y-248920000D03*
X256540000Y-248920000D03*
X254000000Y-248920000D03*
X251460000Y-248920000D03*
X248920000Y-248920000D03*
D17*
X248920000Y-284480000D03*
D18*
X251460000Y-284480000D03*
X254000000Y-284480000D03*
X256540000Y-284480000D03*
X259080000Y-284480000D03*
X261620000Y-284480000D03*
X264160000Y-284480000D03*
X266700000Y-284480000D03*
X269240000Y-284480000D03*
X271780000Y-284480000D03*
X274320000Y-284480000D03*
X276860000Y-284480000D03*
X276860000Y-269240000D03*
X274320000Y-269240000D03*
X271780000Y-269240000D03*
X269240000Y-269240000D03*
X266700000Y-269240000D03*
X264160000Y-269240000D03*
X261620000Y-269240000D03*
X259080000Y-269240000D03*
X256540000Y-269240000D03*
X254000000Y-269240000D03*
X251460000Y-269240000D03*
X248920000Y-269240000D03*
D17*
X248920000Y-304800000D03*
D18*
X251460000Y-304800000D03*
X254000000Y-304800000D03*
X256540000Y-304800000D03*
X259080000Y-304800000D03*
X261620000Y-304800000D03*
X264160000Y-304800000D03*
X266700000Y-304800000D03*
X269240000Y-304800000D03*
X271780000Y-304800000D03*
X274320000Y-304800000D03*
X276860000Y-304800000D03*
X276860000Y-289560000D03*
X274320000Y-289560000D03*
X271780000Y-289560000D03*
X269240000Y-289560000D03*
X266700000Y-289560000D03*
X264160000Y-289560000D03*
X261620000Y-289560000D03*
X259080000Y-289560000D03*
X256540000Y-289560000D03*
X254000000Y-289560000D03*
X251460000Y-289560000D03*
X248920000Y-289560000D03*
D17*
X58928000Y-167640000D03*
D16*
X74168000Y-167640000D03*
X74168000Y-160020000D03*
X58928000Y-160020000D03*
D17*
X287020000Y-337820000D03*
D18*
X289560000Y-337820000D03*
X292100000Y-337820000D03*
X294640000Y-337820000D03*
X297180000Y-337820000D03*
X299720000Y-337820000D03*
X302260000Y-337820000D03*
X304800000Y-337820000D03*
X304800000Y-330200000D03*
X302260000Y-330200000D03*
X299720000Y-330200000D03*
X297180000Y-330200000D03*
X294640000Y-330200000D03*
X292100000Y-330200000D03*
X289560000Y-330200000D03*
X287020000Y-330200000D03*
D17*
X134620000Y-309880000D03*
D18*
X137160000Y-309880000D03*
X139700000Y-309880000D03*
X142240000Y-309880000D03*
X144780000Y-309880000D03*
X147320000Y-309880000D03*
X149860000Y-309880000D03*
X149860000Y-302260000D03*
X147320000Y-302260000D03*
X144780000Y-302260000D03*
X142240000Y-302260000D03*
X139700000Y-302260000D03*
X137160000Y-302260000D03*
X134620000Y-302260000D03*
D17*
X210820000Y-337820000D03*
D18*
X213360000Y-337820000D03*
X215900000Y-337820000D03*
X218440000Y-337820000D03*
X220980000Y-337820000D03*
X223520000Y-337820000D03*
X226060000Y-337820000D03*
X228600000Y-337820000D03*
X228600000Y-330200000D03*
X226060000Y-330200000D03*
X223520000Y-330200000D03*
X220980000Y-330200000D03*
X218440000Y-330200000D03*
X215900000Y-330200000D03*
X213360000Y-330200000D03*
X210820000Y-330200000D03*
D17*
X58420000Y-337820000D03*
D18*
X60960000Y-337820000D03*
X63500000Y-337820000D03*
X66040000Y-337820000D03*
X66040000Y-330200000D03*
X63500000Y-330200000D03*
X60960000Y-330200000D03*
X58420000Y-330200000D03*
D17*
X287020000Y-184150000D03*
D18*
X289560000Y-184150000D03*
X292100000Y-184150000D03*
X294640000Y-184150000D03*
X297180000Y-184150000D03*
X299720000Y-184150000D03*
X302260000Y-184150000D03*
X304800000Y-184150000D03*
X304800000Y-176530000D03*
X302260000Y-176530000D03*
X299720000Y-176530000D03*
X297180000Y-176530000D03*
X294640000Y-176530000D03*
X292100000Y-176530000D03*
X289560000Y-176530000D03*
X287020000Y-176530000D03*
D17*
X287020000Y-323850000D03*
D18*
X289560000Y-323850000D03*
X292100000Y-323850000D03*
X294640000Y-323850000D03*
X297180000Y-323850000D03*
X299720000Y-323850000D03*
X302260000Y-323850000D03*
X304800000Y-323850000D03*
X304800000Y-316230000D03*
X302260000Y-316230000D03*
X299720000Y-316230000D03*
X297180000Y-316230000D03*
X294640000Y-316230000D03*
X292100000Y-316230000D03*
X289560000Y-316230000D03*
X287020000Y-316230000D03*
D16*
X301244000Y-365252000D03*
X303744000Y-365252000D03*
X58928000Y-345440000D03*
X56428000Y-345440000D03*
X310896000Y-335788000D03*
X310896000Y-333288000D03*
X313944000Y-335788000D03*
X313944000Y-333288000D03*
X317500000Y-335748000D03*
X317500000Y-333248000D03*
X320548000Y-335748000D03*
X320548000Y-333248000D03*
X279908000Y-340828000D03*
X279908000Y-338328000D03*
X386588000Y-328676000D03*
X389088000Y-328676000D03*
X342900000Y-344424000D03*
X345400000Y-344424000D03*
X85852000Y-172720000D03*
X88352000Y-172720000D03*
X109860080Y-199694800D03*
X112360080Y-199694800D03*
X293624000Y-359664000D03*
D18*
X303624000Y-359664000D03*
D21*
X313436000Y-327660000D03*
D22*
X318516000Y-327660000D03*
D23*
X351536000Y-350012000D03*
D24*
X351536000Y-348742000D03*
X351536000Y-347472000D03*
D25*
X396240000Y-344932000D03*
D26*
X402240000Y-344932000D03*
D27*
X399240000Y-340232000D03*
D25*
X396240000Y-332740000D03*
D26*
X402240000Y-332740000D03*
D27*
X399240000Y-328040000D03*
D17*
X340360000Y-337820000D03*
D18*
X342900000Y-337820000D03*
X345440000Y-337820000D03*
X347980000Y-337820000D03*
X350520000Y-337820000D03*
X353060000Y-337820000D03*
X355600000Y-337820000D03*
X355600000Y-330200000D03*
X353060000Y-330200000D03*
X350520000Y-330200000D03*
X347980000Y-330200000D03*
X345440000Y-330200000D03*
X342900000Y-330200000D03*
X340360000Y-330200000D03*
D17*
X210820000Y-184150000D03*
D18*
X213360000Y-184150000D03*
X215900000Y-184150000D03*
X218440000Y-184150000D03*
X220980000Y-184150000D03*
X223520000Y-184150000D03*
X226060000Y-184150000D03*
X226060000Y-176530000D03*
X223520000Y-176530000D03*
X220980000Y-176530000D03*
X218440000Y-176530000D03*
X215900000Y-176530000D03*
X213360000Y-176530000D03*
X210820000Y-176530000D03*
D16*
X382524000Y-356108000D03*
X385024000Y-356108000D03*
X382524000Y-360172000D03*
X385024000Y-360172000D03*
D28*
X375920000Y-356108000D03*
D29*
X375920000Y-358648000D03*
X375920000Y-361188000D03*
X375920000Y-363728000D03*
D17*
X96520000Y-323850000D03*
D18*
X99060000Y-323850000D03*
X101600000Y-323850000D03*
X104140000Y-323850000D03*
X106680000Y-323850000D03*
X109220000Y-323850000D03*
X111760000Y-323850000D03*
X111760000Y-316230000D03*
X109220000Y-316230000D03*
X106680000Y-316230000D03*
X104140000Y-316230000D03*
X101600000Y-316230000D03*
X99060000Y-316230000D03*
X96520000Y-316230000D03*
D17*
X365760000Y-323850000D03*
D18*
X368300000Y-323850000D03*
X370840000Y-323850000D03*
X373380000Y-323850000D03*
X375920000Y-323850000D03*
X378460000Y-323850000D03*
X381000000Y-323850000D03*
X383540000Y-323850000D03*
D17*
X96520000Y-198120000D03*
D18*
X99060000Y-198120000D03*
X101600000Y-198120000D03*
X104140000Y-198120000D03*
X104140000Y-190500000D03*
X101600000Y-190500000D03*
X99060000Y-190500000D03*
X96520000Y-190500000D03*
D17*
X210820000Y-298958000D03*
D18*
X213360000Y-298958000D03*
X215900000Y-298958000D03*
X218440000Y-298958000D03*
X220980000Y-298958000D03*
X223520000Y-298958000D03*
X226060000Y-298958000D03*
X228600000Y-298958000D03*
D17*
X172620940Y-183657240D03*
D18*
X175160940Y-183657240D03*
X177700940Y-183657240D03*
X180240940Y-183657240D03*
X182780940Y-183657240D03*
X185320940Y-183657240D03*
X187860940Y-183657240D03*
X187860940Y-176037240D03*
X185320940Y-176037240D03*
X182780940Y-176037240D03*
X180240940Y-176037240D03*
X177700940Y-176037240D03*
X175160940Y-176037240D03*
X172620940Y-176037240D03*
D17*
X134620000Y-198120000D03*
D18*
X137160000Y-198120000D03*
X139700000Y-198120000D03*
X142240000Y-198120000D03*
X144780000Y-198120000D03*
X147320000Y-198120000D03*
X149860000Y-198120000D03*
X152400000Y-198120000D03*
X152400000Y-190500000D03*
X149860000Y-190500000D03*
X147320000Y-190500000D03*
X144780000Y-190500000D03*
X142240000Y-190500000D03*
X139700000Y-190500000D03*
X137160000Y-190500000D03*
X134620000Y-190500000D03*
D17*
X134620000Y-212090000D03*
D18*
X137160000Y-212090000D03*
X139700000Y-212090000D03*
X142240000Y-212090000D03*
X144780000Y-212090000D03*
X147320000Y-212090000D03*
X149860000Y-212090000D03*
X152400000Y-212090000D03*
X152400000Y-204470000D03*
X149860000Y-204470000D03*
X147320000Y-204470000D03*
X144780000Y-204470000D03*
X142240000Y-204470000D03*
X139700000Y-204470000D03*
X137160000Y-204470000D03*
X134620000Y-204470000D03*
D17*
X134620000Y-226060000D03*
D18*
X137160000Y-226060000D03*
X139700000Y-226060000D03*
X142240000Y-226060000D03*
X144780000Y-226060000D03*
X147320000Y-226060000D03*
X149860000Y-226060000D03*
X152400000Y-226060000D03*
X152400000Y-218440000D03*
X149860000Y-218440000D03*
X147320000Y-218440000D03*
X144780000Y-218440000D03*
X142240000Y-218440000D03*
X139700000Y-218440000D03*
X137160000Y-218440000D03*
X134620000Y-218440000D03*
D17*
X134620000Y-240030000D03*
D18*
X137160000Y-240030000D03*
X139700000Y-240030000D03*
X142240000Y-240030000D03*
X144780000Y-240030000D03*
X147320000Y-240030000D03*
X149860000Y-240030000D03*
X152400000Y-240030000D03*
X152400000Y-232410000D03*
X149860000Y-232410000D03*
X147320000Y-232410000D03*
X144780000Y-232410000D03*
X142240000Y-232410000D03*
X139700000Y-232410000D03*
X137160000Y-232410000D03*
X134620000Y-232410000D03*
D17*
X134620000Y-254000000D03*
D18*
X137160000Y-254000000D03*
X139700000Y-254000000D03*
X142240000Y-254000000D03*
X144780000Y-254000000D03*
X147320000Y-254000000D03*
X149860000Y-254000000D03*
X152400000Y-254000000D03*
X152400000Y-246380000D03*
X149860000Y-246380000D03*
X147320000Y-246380000D03*
X144780000Y-246380000D03*
X142240000Y-246380000D03*
X139700000Y-246380000D03*
X137160000Y-246380000D03*
X134620000Y-246380000D03*
D17*
X134620000Y-267970000D03*
D18*
X137160000Y-267970000D03*
X139700000Y-267970000D03*
X142240000Y-267970000D03*
X144780000Y-267970000D03*
X147320000Y-267970000D03*
X149860000Y-267970000D03*
X152400000Y-267970000D03*
X152400000Y-260350000D03*
X149860000Y-260350000D03*
X147320000Y-260350000D03*
X144780000Y-260350000D03*
X142240000Y-260350000D03*
X139700000Y-260350000D03*
X137160000Y-260350000D03*
X134620000Y-260350000D03*
D17*
X134620000Y-281940000D03*
D18*
X137160000Y-281940000D03*
X139700000Y-281940000D03*
X142240000Y-281940000D03*
X144780000Y-281940000D03*
X147320000Y-281940000D03*
X149860000Y-281940000D03*
X152400000Y-281940000D03*
X152400000Y-274320000D03*
X149860000Y-274320000D03*
X147320000Y-274320000D03*
X144780000Y-274320000D03*
X142240000Y-274320000D03*
X139700000Y-274320000D03*
X137160000Y-274320000D03*
X134620000Y-274320000D03*
D17*
X172720000Y-198120000D03*
D18*
X175260000Y-198120000D03*
X177800000Y-198120000D03*
X180340000Y-198120000D03*
X182880000Y-198120000D03*
X185420000Y-198120000D03*
X187960000Y-198120000D03*
X190500000Y-198120000D03*
X190500000Y-190500000D03*
X187960000Y-190500000D03*
X185420000Y-190500000D03*
X182880000Y-190500000D03*
X180340000Y-190500000D03*
X177800000Y-190500000D03*
X175260000Y-190500000D03*
X172720000Y-190500000D03*
D17*
X172720000Y-212090000D03*
D18*
X175260000Y-212090000D03*
X177800000Y-212090000D03*
X180340000Y-212090000D03*
X182880000Y-212090000D03*
X185420000Y-212090000D03*
X187960000Y-212090000D03*
X190500000Y-212090000D03*
X190500000Y-204470000D03*
X187960000Y-204470000D03*
X185420000Y-204470000D03*
X182880000Y-204470000D03*
X180340000Y-204470000D03*
X177800000Y-204470000D03*
X175260000Y-204470000D03*
X172720000Y-204470000D03*
D17*
X172720000Y-226060000D03*
D18*
X175260000Y-226060000D03*
X177800000Y-226060000D03*
X180340000Y-226060000D03*
X182880000Y-226060000D03*
X185420000Y-226060000D03*
X187960000Y-226060000D03*
X190500000Y-226060000D03*
X190500000Y-218440000D03*
X187960000Y-218440000D03*
X185420000Y-218440000D03*
X182880000Y-218440000D03*
X180340000Y-218440000D03*
X177800000Y-218440000D03*
X175260000Y-218440000D03*
X172720000Y-218440000D03*
D17*
X172720000Y-240030000D03*
D18*
X175260000Y-240030000D03*
X177800000Y-240030000D03*
X180340000Y-240030000D03*
X182880000Y-240030000D03*
X185420000Y-240030000D03*
X187960000Y-240030000D03*
X190500000Y-240030000D03*
X190500000Y-232410000D03*
X187960000Y-232410000D03*
X185420000Y-232410000D03*
X182880000Y-232410000D03*
X180340000Y-232410000D03*
X177800000Y-232410000D03*
X175260000Y-232410000D03*
X172720000Y-232410000D03*
D17*
X172720000Y-254000000D03*
D18*
X175260000Y-254000000D03*
X177800000Y-254000000D03*
X180340000Y-254000000D03*
X182880000Y-254000000D03*
X185420000Y-254000000D03*
X187960000Y-254000000D03*
X190500000Y-254000000D03*
X190500000Y-246380000D03*
X187960000Y-246380000D03*
X185420000Y-246380000D03*
X182880000Y-246380000D03*
X180340000Y-246380000D03*
X177800000Y-246380000D03*
X175260000Y-246380000D03*
X172720000Y-246380000D03*
D17*
X172720000Y-267970000D03*
D18*
X175260000Y-267970000D03*
X177800000Y-267970000D03*
X180340000Y-267970000D03*
X182880000Y-267970000D03*
X185420000Y-267970000D03*
X187960000Y-267970000D03*
X190500000Y-267970000D03*
X190500000Y-260350000D03*
X187960000Y-260350000D03*
X185420000Y-260350000D03*
X182880000Y-260350000D03*
X180340000Y-260350000D03*
X177800000Y-260350000D03*
X175260000Y-260350000D03*
X172720000Y-260350000D03*
D17*
X172720000Y-281940000D03*
D18*
X175260000Y-281940000D03*
X177800000Y-281940000D03*
X180340000Y-281940000D03*
X182880000Y-281940000D03*
X185420000Y-281940000D03*
X187960000Y-281940000D03*
X190500000Y-281940000D03*
X190500000Y-274320000D03*
X187960000Y-274320000D03*
X185420000Y-274320000D03*
X182880000Y-274320000D03*
X180340000Y-274320000D03*
X177800000Y-274320000D03*
X175260000Y-274320000D03*
X172720000Y-274320000D03*
D17*
X172720000Y-295910000D03*
D18*
X175260000Y-295910000D03*
X177800000Y-295910000D03*
X180340000Y-295910000D03*
X182880000Y-295910000D03*
X185420000Y-295910000D03*
X187960000Y-295910000D03*
X190500000Y-295910000D03*
X190500000Y-288290000D03*
X187960000Y-288290000D03*
X185420000Y-288290000D03*
X182880000Y-288290000D03*
X180340000Y-288290000D03*
X177800000Y-288290000D03*
X175260000Y-288290000D03*
X172720000Y-288290000D03*
D17*
X210820000Y-198120000D03*
D18*
X213360000Y-198120000D03*
X215900000Y-198120000D03*
X218440000Y-198120000D03*
X220980000Y-198120000D03*
X223520000Y-198120000D03*
X226060000Y-198120000D03*
X228600000Y-198120000D03*
X228600000Y-190500000D03*
X226060000Y-190500000D03*
X223520000Y-190500000D03*
X220980000Y-190500000D03*
X218440000Y-190500000D03*
X215900000Y-190500000D03*
X213360000Y-190500000D03*
X210820000Y-190500000D03*
D17*
X210820000Y-212090000D03*
D18*
X213360000Y-212090000D03*
X215900000Y-212090000D03*
X218440000Y-212090000D03*
X220980000Y-212090000D03*
X223520000Y-212090000D03*
X226060000Y-212090000D03*
X228600000Y-212090000D03*
X228600000Y-204470000D03*
X226060000Y-204470000D03*
X223520000Y-204470000D03*
X220980000Y-204470000D03*
X218440000Y-204470000D03*
X215900000Y-204470000D03*
X213360000Y-204470000D03*
X210820000Y-204470000D03*
D17*
X210820000Y-226060000D03*
D18*
X213360000Y-226060000D03*
X215900000Y-226060000D03*
X218440000Y-226060000D03*
X220980000Y-226060000D03*
X223520000Y-226060000D03*
X226060000Y-226060000D03*
X228600000Y-226060000D03*
X228600000Y-218440000D03*
X226060000Y-218440000D03*
X223520000Y-218440000D03*
X220980000Y-218440000D03*
X218440000Y-218440000D03*
X215900000Y-218440000D03*
X213360000Y-218440000D03*
X210820000Y-218440000D03*
D17*
X210820000Y-240030000D03*
D18*
X213360000Y-240030000D03*
X215900000Y-240030000D03*
X218440000Y-240030000D03*
X220980000Y-240030000D03*
X223520000Y-240030000D03*
X226060000Y-240030000D03*
X228600000Y-240030000D03*
X228600000Y-232410000D03*
X226060000Y-232410000D03*
X223520000Y-232410000D03*
X220980000Y-232410000D03*
X218440000Y-232410000D03*
X215900000Y-232410000D03*
X213360000Y-232410000D03*
X210820000Y-232410000D03*
D17*
X210820000Y-254000000D03*
D18*
X213360000Y-254000000D03*
X215900000Y-254000000D03*
X218440000Y-254000000D03*
X220980000Y-254000000D03*
X223520000Y-254000000D03*
X226060000Y-254000000D03*
X228600000Y-254000000D03*
X228600000Y-246380000D03*
X226060000Y-246380000D03*
X223520000Y-246380000D03*
X220980000Y-246380000D03*
X218440000Y-246380000D03*
X215900000Y-246380000D03*
X213360000Y-246380000D03*
X210820000Y-246380000D03*
D17*
X210820000Y-267970000D03*
D18*
X213360000Y-267970000D03*
X215900000Y-267970000D03*
X218440000Y-267970000D03*
X220980000Y-267970000D03*
X223520000Y-267970000D03*
X226060000Y-267970000D03*
X228600000Y-267970000D03*
X228600000Y-260350000D03*
X226060000Y-260350000D03*
X223520000Y-260350000D03*
X220980000Y-260350000D03*
X218440000Y-260350000D03*
X215900000Y-260350000D03*
X213360000Y-260350000D03*
X210820000Y-260350000D03*
D17*
X210820000Y-281940000D03*
D18*
X213360000Y-281940000D03*
X215900000Y-281940000D03*
X218440000Y-281940000D03*
X220980000Y-281940000D03*
X223520000Y-281940000D03*
X226060000Y-281940000D03*
X228600000Y-281940000D03*
X228600000Y-274320000D03*
X226060000Y-274320000D03*
X223520000Y-274320000D03*
X220980000Y-274320000D03*
X218440000Y-274320000D03*
X215900000Y-274320000D03*
X213360000Y-274320000D03*
X210820000Y-274320000D03*
D17*
X210820000Y-296049700D03*
D18*
X213360000Y-296049700D03*
X215900000Y-296049700D03*
X218440000Y-296049700D03*
X220980000Y-296049700D03*
X223520000Y-296049700D03*
X226060000Y-296049700D03*
X228600000Y-296049700D03*
X228600000Y-288429700D03*
X226060000Y-288429700D03*
X223520000Y-288429700D03*
X220980000Y-288429700D03*
X218440000Y-288429700D03*
X215900000Y-288429700D03*
X213360000Y-288429700D03*
X210820000Y-288429700D03*
D17*
X134620000Y-295765220D03*
D18*
X137160000Y-295765220D03*
X139700000Y-295765220D03*
X142240000Y-295765220D03*
X144780000Y-295765220D03*
X147320000Y-295765220D03*
X149860000Y-295765220D03*
X152400000Y-295765220D03*
X152400000Y-288145220D03*
X149860000Y-288145220D03*
X147320000Y-288145220D03*
X144780000Y-288145220D03*
X142240000Y-288145220D03*
X139700000Y-288145220D03*
X137160000Y-288145220D03*
X134620000Y-288145220D03*
D30*
X325040000Y-316865000D03*
X327580000Y-316865000D03*
X330120000Y-316865000D03*
X332660000Y-316865000D03*
X335200000Y-316865000D03*
X337740000Y-316865000D03*
X340280000Y-316865000D03*
X342820000Y-316865000D03*
X345360000Y-316865000D03*
X347900000Y-316865000D03*
X350440000Y-316865000D03*
X352980000Y-316865000D03*
X355520000Y-316865000D03*
X358060000Y-316865000D03*
X360600000Y-316865000D03*
X363140000Y-316865000D03*
X365680000Y-316865000D03*
X368220000Y-316865000D03*
X370760000Y-316865000D03*
X373300000Y-316865000D03*
X375840000Y-316865000D03*
X378380000Y-316865000D03*
X380920000Y-316865000D03*
X383460000Y-316865000D03*
X386000000Y-316865000D03*
D31*
X386000000Y-313055000D03*
D30*
X383460000Y-313055000D03*
X380920000Y-313055000D03*
X378380000Y-313055000D03*
X375840000Y-313055000D03*
X373300000Y-313055000D03*
X370760000Y-313055000D03*
X368220000Y-313055000D03*
X365680000Y-313055000D03*
X363140000Y-313055000D03*
X360600000Y-313055000D03*
X358060000Y-313055000D03*
X355520000Y-313055000D03*
X352980000Y-313055000D03*
X350440000Y-313055000D03*
X347900000Y-313055000D03*
X345360000Y-313055000D03*
X342820000Y-313055000D03*
X340280000Y-313055000D03*
X337740000Y-313055000D03*
X335200000Y-313055000D03*
X332660000Y-313055000D03*
X330120000Y-313055000D03*
X327580000Y-313055000D03*
X325040000Y-313055000D03*
X325040000Y-297865000D03*
X327580000Y-297865000D03*
X330120000Y-297865000D03*
X332660000Y-297865000D03*
X335200000Y-297865000D03*
X337740000Y-297865000D03*
X340280000Y-297865000D03*
X342820000Y-297865000D03*
X345360000Y-297865000D03*
X347900000Y-297865000D03*
X350440000Y-297865000D03*
X352980000Y-297865000D03*
X355520000Y-297865000D03*
X358060000Y-297865000D03*
X360600000Y-297865000D03*
X363140000Y-297865000D03*
X365680000Y-297865000D03*
X368220000Y-297865000D03*
X370760000Y-297865000D03*
X373300000Y-297865000D03*
X375840000Y-297865000D03*
X378380000Y-297865000D03*
X380920000Y-297865000D03*
X383460000Y-297865000D03*
X386000000Y-297865000D03*
D31*
X386000000Y-294055000D03*
D30*
X383460000Y-294055000D03*
X380920000Y-294055000D03*
X378380000Y-294055000D03*
X375840000Y-294055000D03*
X373300000Y-294055000D03*
X370760000Y-294055000D03*
X368220000Y-294055000D03*
X365680000Y-294055000D03*
X363140000Y-294055000D03*
X360600000Y-294055000D03*
X358060000Y-294055000D03*
X355520000Y-294055000D03*
X352980000Y-294055000D03*
X350440000Y-294055000D03*
X347900000Y-294055000D03*
X345360000Y-294055000D03*
X342820000Y-294055000D03*
X340280000Y-294055000D03*
X337740000Y-294055000D03*
X335200000Y-294055000D03*
X332660000Y-294055000D03*
X330120000Y-294055000D03*
X327580000Y-294055000D03*
X325040000Y-294055000D03*
X325040000Y-278865000D03*
X327580000Y-278865000D03*
X330120000Y-278865000D03*
X332660000Y-278865000D03*
X335200000Y-278865000D03*
X337740000Y-278865000D03*
X340280000Y-278865000D03*
X342820000Y-278865000D03*
X345360000Y-278865000D03*
X347900000Y-278865000D03*
X350440000Y-278865000D03*
X352980000Y-278865000D03*
X355520000Y-278865000D03*
X358060000Y-278865000D03*
X360600000Y-278865000D03*
X363140000Y-278865000D03*
X365680000Y-278865000D03*
X368220000Y-278865000D03*
X370760000Y-278865000D03*
X373300000Y-278865000D03*
X375840000Y-278865000D03*
X378380000Y-278865000D03*
X380920000Y-278865000D03*
X383460000Y-278865000D03*
X386000000Y-278865000D03*
D31*
X386000000Y-275055000D03*
D30*
X383460000Y-275055000D03*
X380920000Y-275055000D03*
X378380000Y-275055000D03*
X375840000Y-275055000D03*
X373300000Y-275055000D03*
X370760000Y-275055000D03*
X368220000Y-275055000D03*
X365680000Y-275055000D03*
X363140000Y-275055000D03*
X360600000Y-275055000D03*
X358060000Y-275055000D03*
X355520000Y-275055000D03*
X352980000Y-275055000D03*
X350440000Y-275055000D03*
X347900000Y-275055000D03*
X345360000Y-275055000D03*
X342820000Y-275055000D03*
X340280000Y-275055000D03*
X337740000Y-275055000D03*
X335200000Y-275055000D03*
X332660000Y-275055000D03*
X330120000Y-275055000D03*
X327580000Y-275055000D03*
X325040000Y-275055000D03*
X325040000Y-259865000D03*
X327580000Y-259865000D03*
X330120000Y-259865000D03*
X332660000Y-259865000D03*
X335200000Y-259865000D03*
X337740000Y-259865000D03*
X340280000Y-259865000D03*
X342820000Y-259865000D03*
X345360000Y-259865000D03*
X347900000Y-259865000D03*
X350440000Y-259865000D03*
X352980000Y-259865000D03*
X355520000Y-259865000D03*
X358060000Y-259865000D03*
X360600000Y-259865000D03*
X363140000Y-259865000D03*
X365680000Y-259865000D03*
X368220000Y-259865000D03*
X370760000Y-259865000D03*
X373300000Y-259865000D03*
X375840000Y-259865000D03*
X378380000Y-259865000D03*
X380920000Y-259865000D03*
X383460000Y-259865000D03*
X386000000Y-259865000D03*
D31*
X386000000Y-256055000D03*
D30*
X383460000Y-256055000D03*
X380920000Y-256055000D03*
X378380000Y-256055000D03*
X375840000Y-256055000D03*
X373300000Y-256055000D03*
X370760000Y-256055000D03*
X368220000Y-256055000D03*
X365680000Y-256055000D03*
X363140000Y-256055000D03*
X360600000Y-256055000D03*
X358060000Y-256055000D03*
X355520000Y-256055000D03*
X352980000Y-256055000D03*
X350440000Y-256055000D03*
X347900000Y-256055000D03*
X345360000Y-256055000D03*
X342820000Y-256055000D03*
X340280000Y-256055000D03*
X337740000Y-256055000D03*
X335200000Y-256055000D03*
X332660000Y-256055000D03*
X330120000Y-256055000D03*
X327580000Y-256055000D03*
X325040000Y-256055000D03*
X325040000Y-240865000D03*
X327580000Y-240865000D03*
X330120000Y-240865000D03*
X332660000Y-240865000D03*
X335200000Y-240865000D03*
X337740000Y-240865000D03*
X340280000Y-240865000D03*
X342820000Y-240865000D03*
X345360000Y-240865000D03*
X347900000Y-240865000D03*
X350440000Y-240865000D03*
X352980000Y-240865000D03*
X355520000Y-240865000D03*
X358060000Y-240865000D03*
X360600000Y-240865000D03*
X363140000Y-240865000D03*
X365680000Y-240865000D03*
X368220000Y-240865000D03*
X370760000Y-240865000D03*
X373300000Y-240865000D03*
X375840000Y-240865000D03*
X378380000Y-240865000D03*
X380920000Y-240865000D03*
X383460000Y-240865000D03*
X386000000Y-240865000D03*
D31*
X386000000Y-237055000D03*
D30*
X383460000Y-237055000D03*
X380920000Y-237055000D03*
X378380000Y-237055000D03*
X375840000Y-237055000D03*
X373300000Y-237055000D03*
X370760000Y-237055000D03*
X368220000Y-237055000D03*
X365680000Y-237055000D03*
X363140000Y-237055000D03*
X360600000Y-237055000D03*
X358060000Y-237055000D03*
X355520000Y-237055000D03*
X352980000Y-237055000D03*
X350440000Y-237055000D03*
X347900000Y-237055000D03*
X345360000Y-237055000D03*
X342820000Y-237055000D03*
X340280000Y-237055000D03*
X337740000Y-237055000D03*
X335200000Y-237055000D03*
X332660000Y-237055000D03*
X330120000Y-237055000D03*
X327580000Y-237055000D03*
X325040000Y-237055000D03*
X325040000Y-221865000D03*
X327580000Y-221865000D03*
X330120000Y-221865000D03*
X332660000Y-221865000D03*
X335200000Y-221865000D03*
X337740000Y-221865000D03*
X340280000Y-221865000D03*
X342820000Y-221865000D03*
X345360000Y-221865000D03*
X347900000Y-221865000D03*
X350440000Y-221865000D03*
X352980000Y-221865000D03*
X355520000Y-221865000D03*
X358060000Y-221865000D03*
X360600000Y-221865000D03*
X363140000Y-221865000D03*
X365680000Y-221865000D03*
X368220000Y-221865000D03*
X370760000Y-221865000D03*
X373300000Y-221865000D03*
X375840000Y-221865000D03*
X378380000Y-221865000D03*
X380920000Y-221865000D03*
X383460000Y-221865000D03*
X386000000Y-221865000D03*
D31*
X386000000Y-218055000D03*
D30*
X383460000Y-218055000D03*
X380920000Y-218055000D03*
X378380000Y-218055000D03*
X375840000Y-218055000D03*
X373300000Y-218055000D03*
X370760000Y-218055000D03*
X368220000Y-218055000D03*
X365680000Y-218055000D03*
X363140000Y-218055000D03*
X360600000Y-218055000D03*
X358060000Y-218055000D03*
X355520000Y-218055000D03*
X352980000Y-218055000D03*
X350440000Y-218055000D03*
X347900000Y-218055000D03*
X345360000Y-218055000D03*
X342820000Y-218055000D03*
X340280000Y-218055000D03*
X337740000Y-218055000D03*
X335200000Y-218055000D03*
X332660000Y-218055000D03*
X330120000Y-218055000D03*
X327580000Y-218055000D03*
X325040000Y-218055000D03*
X325040000Y-202865000D03*
X327580000Y-202865000D03*
X330120000Y-202865000D03*
X332660000Y-202865000D03*
X335200000Y-202865000D03*
X337740000Y-202865000D03*
X340280000Y-202865000D03*
X342820000Y-202865000D03*
X345360000Y-202865000D03*
X347900000Y-202865000D03*
X350440000Y-202865000D03*
X352980000Y-202865000D03*
X355520000Y-202865000D03*
X358060000Y-202865000D03*
X360600000Y-202865000D03*
X363140000Y-202865000D03*
X365680000Y-202865000D03*
X368220000Y-202865000D03*
X370760000Y-202865000D03*
X373300000Y-202865000D03*
X375840000Y-202865000D03*
X378380000Y-202865000D03*
X380920000Y-202865000D03*
X383460000Y-202865000D03*
X386000000Y-202865000D03*
D31*
X386000000Y-199055000D03*
D30*
X383460000Y-199055000D03*
X380920000Y-199055000D03*
X378380000Y-199055000D03*
X375840000Y-199055000D03*
X373300000Y-199055000D03*
X370760000Y-199055000D03*
X368220000Y-199055000D03*
X365680000Y-199055000D03*
X363140000Y-199055000D03*
X360600000Y-199055000D03*
X358060000Y-199055000D03*
X355520000Y-199055000D03*
X352980000Y-199055000D03*
X350440000Y-199055000D03*
X347900000Y-199055000D03*
X345360000Y-199055000D03*
X342820000Y-199055000D03*
X340280000Y-199055000D03*
X337740000Y-199055000D03*
X335200000Y-199055000D03*
X332660000Y-199055000D03*
X330120000Y-199055000D03*
X327580000Y-199055000D03*
X325040000Y-199055000D03*
X325020940Y-183842660D03*
X327560940Y-183842660D03*
X330100940Y-183842660D03*
X332640940Y-183842660D03*
X335180940Y-183842660D03*
X337720940Y-183842660D03*
X340260940Y-183842660D03*
X342800940Y-183842660D03*
X345340940Y-183842660D03*
X347880940Y-183842660D03*
X350420940Y-183842660D03*
X352960940Y-183842660D03*
X355500940Y-183842660D03*
X358040940Y-183842660D03*
X360580940Y-183842660D03*
X363120940Y-183842660D03*
X365660940Y-183842660D03*
X368200940Y-183842660D03*
X370740940Y-183842660D03*
X373280940Y-183842660D03*
X375820940Y-183842660D03*
X378360940Y-183842660D03*
X380900940Y-183842660D03*
X383440940Y-183842660D03*
X385980940Y-183842660D03*
D31*
X385980940Y-180032660D03*
D30*
X383440940Y-180032660D03*
X380900940Y-180032660D03*
X378360940Y-180032660D03*
X375820940Y-180032660D03*
X373280940Y-180032660D03*
X370740940Y-180032660D03*
X368200940Y-180032660D03*
X365660940Y-180032660D03*
X363120940Y-180032660D03*
X360580940Y-180032660D03*
X358040940Y-180032660D03*
X355500940Y-180032660D03*
X352960940Y-180032660D03*
X350420940Y-180032660D03*
X347880940Y-180032660D03*
X345340940Y-180032660D03*
X342800940Y-180032660D03*
X340260940Y-180032660D03*
X337720940Y-180032660D03*
X335180940Y-180032660D03*
X332640940Y-180032660D03*
X330100940Y-180032660D03*
X327560940Y-180032660D03*
X325020940Y-180032660D03*
D17*
X306070000Y-281940000D03*
D18*
X306070000Y-279400000D03*
X306070000Y-276860000D03*
X306070000Y-274320000D03*
X306070000Y-271780000D03*
X306070000Y-269240000D03*
X306070000Y-266700000D03*
X306070000Y-264160000D03*
X306070000Y-261620000D03*
X306070000Y-259080000D03*
X306070000Y-256540000D03*
X306070000Y-254000000D03*
X306070000Y-251460000D03*
X306070000Y-248920000D03*
X306070000Y-246380000D03*
X306070000Y-243840000D03*
X306070000Y-241300000D03*
X306070000Y-238760000D03*
X306070000Y-236220000D03*
X306070000Y-233680000D03*
X290830000Y-233680000D03*
X290830000Y-236220000D03*
X290830000Y-238760000D03*
X290830000Y-241300000D03*
X290830000Y-243840000D03*
X290830000Y-246380000D03*
X290830000Y-248920000D03*
X290830000Y-251460000D03*
X290830000Y-254000000D03*
X290830000Y-256540000D03*
X290830000Y-259080000D03*
X290830000Y-261620000D03*
X290830000Y-264160000D03*
X290830000Y-266700000D03*
X290830000Y-269240000D03*
X290830000Y-271780000D03*
X290830000Y-274320000D03*
X290830000Y-276860000D03*
X290830000Y-279400000D03*
X290830000Y-281940000D03*
D17*
X379874780Y-159118300D03*
D16*
X384874780Y-159118300D03*
D17*
X396166340Y-189466220D03*
D16*
X401166340Y-189466220D03*
D17*
X385584700Y-168376600D03*
D16*
X390584700Y-168376600D03*
D32*
X401541541Y-159635821D03*
D33*
X401541541Y-162175821D03*
X401541541Y-167255821D03*
X401541541Y-169795821D03*
X401541541Y-172335821D03*
M02*
